<?xml version="1.0" encoding="UTF-8"?>
<svg xmlns="http://www.w3.org/2000/svg" version="1.1" xmlns:xlink="http://www.w3.org/1999/xlink" viewBox="0 0 643.3 181.5">
  <!-- Generator: Adobe Illustrator 29.4.0, SVG Export Plug-In . SVG Version: 2.1.0 Build 152)  -->
  <defs>
    <style>
      .st0 {
        fill: url(#linear-gradient2);
      }

      .st1 {
        fill: #fff;
      }

      .st2 {
        fill: url(#linear-gradient1);
      }

      .st3 {
        isolation: isolate;
      }

      .st4 {
        fill: url(#linear-gradient4);
      }

      .st5 {
        fill: url(#linear-gradient5);
      }

      .st6 {
        fill: url(#linear-gradient3);
      }

      .st7 {
        mix-blend-mode: overlay;
      }

      .st8 {
        fill: url(#linear-gradient);
      }
    </style>
    <linearGradient id="linear-gradient" x1="7.5" y1="756.1" x2="538.4" y2="756.1" gradientUnits="userSpaceOnUse">
      <stop offset="0" stop-color="#f70"/>
      <stop offset=".4" stop-color="#ff1e00"/>
      <stop offset=".8" stop-color="#ffbe00"/>
    </linearGradient>
    <linearGradient id="linear-gradient1" x1="490.8" y1="738.7" x2="588.4" y2="836.4" gradientUnits="userSpaceOnUse">
      <stop offset="0" stop-color="#00dbb8"/>
      <stop offset="1" stop-color="#00b8dc"/>
    </linearGradient>
    <linearGradient id="linear-gradient2" x1="575.3" y1="740.7" x2="575.3" y2="751.7" gradientTransform="translate(112.5 -74.6) rotate(8.2)" xlink:href="#linear-gradient1"/>
    <linearGradient id="linear-gradient3" y1="528" y2="528" xlink:href="#linear-gradient"/>
    <linearGradient id="linear-gradient4" y1="510.6" y2="608.2" xlink:href="#linear-gradient1"/>
    <linearGradient id="linear-gradient5" x1="575.3" y1="512.6" x2="575.3" y2="523.5" gradientTransform="translate(79.9 -76.9) rotate(8.2)" xlink:href="#linear-gradient1"/>
  </defs>
  <g class="st3">
    <g id="Layer_1">
      <g>
        <path class="st1" d="M639.1,763.9c-2.5-5.9-5.9-11.3-10.2-16.1-2.3-2.6-5.7-4.2-9.1-4.3-9.2-.3-18.2-3-26-7.7-8.4-5-15.3-12.3-20-21-6.1-11.5-18-18.6-31-18.6h-70.4c-8.7,0-17.2-2.5-24.5-7.1-1.2-.8-2.6-1.2-4-1.2h0c-1.8,0-3.5.6-4.9,1.8-1.9,1.6-2.8,4-2.6,6.4H0v119.8h485.8c8.9,4.7,16.8,7.6,24.7,8.9,4.1.7,8.3,1,12.8,1,12.4,0,24.4-2.6,36-5l2.8-.6c14.7-3.1,27.3-4.5,39.9-4.5s4.7,0,7,.2c.8,0,1.6,0,2.3,0,16.5,0,23.8-8.4,26.9-15.7l3.4-4.3c1.1-1.3,1.6-3,1.6-4.7,0-6.9-1.4-20.4-4.3-27.4Z"/>
        <g>
          <g>
            <g>
              <g>
                <polyline class="st8" points="526.8 703.7 7.5 703.7 7.5 808.5 538.4 808.5"/>
                <polygon points="538.4 811 5 811 5 701.2 526.8 701.2 526.8 706.2 10 706.2 10 806 538.4 806 538.4 811"/>
              </g>
              <g>
                <path class="st2" d="M632.1,766.7c-2.1-5.1-5.1-9.8-8.8-13.9-1-1.1-2.4-1.8-3.8-1.8-10.6-.4-20.8-3.5-29.6-8.8-9.4-5.7-17.3-13.8-22.7-23.9-4.8-9-14.1-14.6-24.3-14.6h-70.3c-10.1,0-20-2.9-28.5-8.2.7,1.7,2.3,4.8,5.1,8.2,1.8,2.1,4,4.4,6.9,6.3,7.4,5.1,14.8,5.8,17.8,5.9,0,0-8.5,1.2-18.2,3.2-4.7,1-9.7,2.1-14.1,3.4-16.6,4.9-22,8.8-32.7,9.8-8.6.8-21-.3-37-9.6,17.1,13.8,36.5,27.9,58.3,33.1,6.2,1.5,12.7,2.1,19,1.2,12.7-1.8,21.7-11.2,32.5-17.2,5.8-3.3,12.4-5.7,19.1-5.6,6.7,0,13.6,2.9,17.4,8.4,10.7,15.3-5.6,32.1-20.9,33.4-10.5.9-18.9-3.5-28.8-5.5-8.9-1.8-18.8-.8-27.8,0-7.6.6-29,3.4-32.2,4.4,12.8,2,25.6,5.8,37.7,10.2,23.2,8.5,40.8,28.3,65.6,32.4,16.4,2.7,32.8-1.2,48.8-4.5,16.3-3.4,32.1-5.3,48.8-4.6,9.6.4,18.6-2.1,22.4-12l4.1-5.1c0-6.4-1.3-18.8-3.7-24.6Z"/>
                <path d="M523.4,820.9c-4,0-8-.3-12-.9-14.8-2.5-27.2-10.4-39.2-18-8.5-5.4-17.4-11.1-26.9-14.6-13.9-5.1-26-8.4-37.2-10.1-1.1-.2-2-1.1-2.1-2.3s.6-2.2,1.8-2.6c3.6-1.1,25.6-4,32.7-4.5l2.6-.2c8.6-.7,17.4-1.4,25.8.3,3.3.7,6.5,1.6,9.5,2.5,6.1,1.8,11.9,3.6,18.5,3,8.4-.7,17-6.6,20.5-13.9,1.7-3.7,2.9-9.3-1.4-15.5-3.1-4.5-9-7.3-15.4-7.3,0,0-.2,0-.2,0-5.4,0-11.3,1.8-17.6,5.3-3.2,1.8-6.4,4-9.5,6.2-7.1,4.9-14.5,10-23.8,11.4-6.1.9-12.8.4-19.9-1.3-22.2-5.3-41.6-19.3-59.3-33.6-1-.8-1.2-2.3-.5-3.4.7-1.1,2.2-1.4,3.3-.7,12.3,7.1,24.3,10.2,35.5,9.2,6.1-.5,10.5-2.2,16.6-4.4,4-1.5,8.9-3.3,15.5-5.2,3.9-1.2,8.7-2.3,14.3-3.5,2-.4,3.9-.8,5.8-1.1-2.1-.9-4.2-2-6.3-3.5-2.8-1.9-5.3-4.2-7.4-6.8-2.2-2.6-4-5.6-5.4-8.8-.4-1-.2-2.2.7-2.9.8-.7,2-.8,3-.2,8.2,5.1,17.6,7.8,27.2,7.8h70.3c11.1,0,21.3,6.1,26.5,15.9,5.1,9.5,12.6,17.4,21.8,22.9,8.6,5.2,18.4,8.1,28.4,8.4,2.1,0,4.2,1,5.6,2.6,3.9,4.3,7,9.3,9.3,14.7h0c2.5,6.1,3.9,18.8,3.9,25.5s-.2,1.1-.5,1.6l-3.8,4.8c-3.8,9.3-12.1,13.8-24.7,13.2-15.2-.7-30.5.8-48.1,4.5l-2.8.6c-11.4,2.4-23.1,4.9-34.9,4.9ZM422.3,775.1c7.7,1.9,15.9,4.4,24.7,7.7,10.1,3.7,19.1,9.5,27.9,15,12.1,7.7,23.5,15,37.3,17.3,15,2.5,30.3-.8,45.1-3.9l2.8-.6c18.1-3.8,33.8-5.3,49.4-4.6,10.6.5,17.1-2.9,19.9-10.4,0-.2.2-.5.4-.7l3.5-4.4c-.1-6.4-1.3-17.6-3.5-22.8-2-4.9-4.8-9.3-8.4-13.2-.5-.6-1.3-1-2.1-1-10.9-.4-21.5-3.5-30.8-9.1-10-6-18.1-14.6-23.6-24.8-4.4-8.2-12.8-13.3-22.1-13.3h-70.3c-7.5,0-14.9-1.5-21.8-4.4,0,.1.2.2.3.3,1.9,2.3,4,4.2,6.4,5.9,6.2,4.2,12.4,5.3,16.5,5.5,1.3,0,2.3,1.1,2.4,2.4s-.9,2.4-2.1,2.6c0,0-8.6,1.2-18,3.2-5.5,1.1-10.1,2.3-13.9,3.4-6.4,1.9-11.1,3.6-15.2,5.1-6.5,2.4-11.1,4.1-17.9,4.7-6.5.6-13.2,0-19.9-2,12.8,9.2,26.6,17,41.6,20.5,6.5,1.5,12.6,1.9,18.1,1.2,8.1-1.1,14.7-5.7,21.7-10.5,3.2-2.2,6.5-4.5,9.9-6.4,7.2-4,14-6,20.3-5.9,8,0,15.4,3.7,19.5,9.5,4.4,6.3,5.1,13.6,1.9,20.5-4.1,8.9-14.5,15.9-24.6,16.8-7.5.7-14.1-1.3-20.4-3.2-2.9-.9-6-1.8-9.1-2.4-7.7-1.6-16.2-.9-24.4-.2l-2.6.2c-4.1.3-11.8,1.2-18.6,2.2Z"/>
              </g>
              <g>
                <path class="st1" d="M50.6,720.2h19.6c5.3,0,9.3.4,12,1.2,2.7.8,4.6,2,5.8,3.6,1.2,1.6,1.8,3.5,1.9,5.7.1,2.2-.2,5.7-1.1,10.4l-1.1,6.5c-.8,4.8-1.9,8.3-3.3,10.4-1.4,2.2-3.5,3.9-6.3,5-2.8,1.2-6.4,1.8-10.6,1.8h-5.2l-5.3,30.1h-19.5l13.2-74.8ZM67.8,733l-3.4,19c.5,0,1,0,1.4,0,1.8,0,3.1-.4,4-1.3.8-.9,1.5-2.7,2-5.5l1.1-6.1c.5-2.6.3-4.2-.3-5-.7-.8-2.3-1.2-4.8-1.2Z"/>
                <path class="st1" d="M117.6,720.2l-13.2,74.8h-19.5l13.2-74.8h19.5Z"/>
                <path class="st1" d="M171.8,720.2l-17.1,33.8,5,41h-20.1l-2.2-32.1-5.7,32.1h-19.5l13.2-74.8h19.5l-5.1,29.1,13.8-29.1h18.3Z"/>
                <path class="st1" d="M210.4,720.2l-2.6,15-22.4,44.9h14.5l-2.6,15h-35.9l1.9-10.9,23.6-49h-13.2l2.6-15h34.1Z"/>
                <path class="st1" d="M234.9,720.2l-13.2,74.8h-19.5l13.2-74.8h19.5Z"/>
                <path class="st1" d="M262.2,720.2l-10.6,59.8h11.8l-2.6,15h-31.3l13.2-74.8h19.5Z"/>
                <path class="st1" d="M298.2,720.2l-10.6,59.8h11.8l-2.6,15h-31.3l13.2-74.8h19.5Z"/>
                <path class="st1" d="M350.7,720.2l-2.1,74.8h-19.9l1.3-13.4h-7l-3.5,13.4h-20.1l23.1-74.8h28.1ZM331.9,768.3c.5-8.5,1.4-18.9,2.6-31.4-4.5,14.3-7.6,24.8-9.3,31.4h6.7Z"/>
              </g>
              <path d="M633.6,793.8c-.4,0-.9-.1-1.3-.4-12.6-7.6-28-5-42.8-2.6-2,.3-4,.7-6,1-8.6,1.3-17.6-.9-24.5-6-.4-.3-.6-.5-.6-.5-1.1-.9-1.3-2.4-.4-3.5.9-1.1,2.4-1.3,3.5-.4,0,0,.2.1.5.4,5.9,4.3,13.4,6.2,20.8,5.1,1.9-.3,3.9-.6,5.9-1,15-2.5,32-5.3,46.2,3.2,1.2.7,1.6,2.2.9,3.4-.5.8-1.3,1.2-2.1,1.2Z"/>
              <path d="M621.6,769.8c-1.2,0-2.3-.9-2.5-2.1-.4-2.6-1.6-4.9-2.2-5.4-.1,0-.4.2-.7.6-.9,1-2.5,1.1-3.5.1-1-.9-1.1-2.5-.1-3.5,2.3-2.4,4.4-2.4,5.8-2,4.3,1.3,5.6,8.6,5.8,9.4.2,1.4-.7,2.6-2.1,2.9-.1,0-.3,0-.4,0Z"/>
              <g>
                <path class="st1" d="M595.5,748.1s.6,6.6-16.2,8c-8.6-1.4-22.5-4.3-30.7-33.9,6.7,4.5,21.3,11.2,21.3,11.2l8.8,2.9c4.8,6,13,9.9,16.8,11.8Z"/>
                <path d="M578.4,758.6c-.5,0-1.1,0-1.6,0-20.1-1.3-30.3-27-31.9-38.5-.2-1.1.4-2.1,1.4-2.6,1-.5,2.2-.2,2.9.6,9.9,11,21.7,13.4,29.9,13.5,1.4,0,2.5,1.1,2.5,2.5,0,1.4-1.1,2.5-2.5,2.5h0c-7.5,0-17.7-1.9-27.2-9.2,3.6,10.7,11.8,25.4,25.2,26.2,3.9.3,8-.7,12.3-2.7,1.2-.6,2.7,0,3.3,1.2.6,1.2,0,2.7-1.2,3.3-4.5,2.2-9,3.2-13.2,3.2Z"/>
                <g>
                  <ellipse class="st0" cx="575.3" cy="746.1" rx="5" ry="9.9" transform="translate(-100.7 89.9) rotate(-8.2)"/>
                  <path d="M576.3,758.3c-2,0-4-1.2-5.6-3.4-1.4-2-2.4-4.8-2.9-7.8-.4-3-.2-5.9.6-8.3,1-2.9,2.8-4.7,5.1-5,4.2-.6,8.2,4.2,9.2,11.2.4,3,.2,5.9-.6,8.3-1,2.9-2.8,4.7-5.1,5-.3,0-.5,0-.8,0ZM574.3,738.8s0,0,0,0c-.1,0-.7.5-1.1,1.7-.5,1.6-.7,3.8-.3,5.9.3,2.2,1,4.2,2,5.6.7,1.1,1.4,1.3,1.5,1.3.1,0,.7-.5,1.1-1.7.5-1.6.7-3.8.3-5.9-.7-4.6-2.8-6.9-3.5-6.9Z"/>
                </g>
              </g>
              <path d="M506.5,754.1c0-5.5-7-9.2-11.5-5.3-1,.9-1.7,2.1-2.7,3.2s-2.1,2-3.4,2.7c-.7.4-1.4.6-2.1.8s-1.5.2-2.2.2c2.2,1,4.1,2.4,6.1,3.7,2.4,1.5,5.2,1.9,7.9,1.8,3.4-.1,6.7-2.1,7.6-5.5.1-.5.2-1,.2-1.6Z"/>
              <path d="M410.3,713.5c-1.7-.8-3.8-.7-5.5-.3-2.2.5-4.6,1.8-5.9,3.6-.2.3-.7.8-.6,1.2,2.1-.2,4.4,0,6.4.9.8.3,1.5.8,2.3,1.1s1.7.6,2.5.5c1.3,0,2.5-.9,3-2.1s.4-2.6-.4-3.6c-.5-.6-1.1-1.1-1.8-1.4Z"/>
              <path d="M382.4,783.8c1.3-2.8,4-5,6.6-6.4,3.3-1.7,7.7-2.8,11.3-2,.6.1,1.7.3,2.1.8-2.9,2-5.5,5-7,8.2-.6,1.3-1.1,2.7-1.7,4-.6,1.3-1.4,2.6-2.5,3.5-1.7,1.3-4.1,1.6-6.1.7s-3.3-2.9-3.5-5c0-1.3.2-2.6.7-3.8Z"/>
            </g>
            <path class="st7" d="M617.3,759.7s6.1,3.8,4.3,8.7c-4.2-3.3-7.9-.6-7.2-5.9,0-3.8,2.9-2.7,2.9-2.7Z"/>
            <path class="st7" d="M521.4,751.9s-1.9-2.3-5.5-4.6c-9.4-6-21.5-6-31.2-.4-16.6,9.7-33.7,17.1-50.3,10,11.7.4,31.6-2.1,44.8-15.7,9-6.1,36.5-14.9,42.3,10.7Z"/>
            <path class="st7" d="M557.6,770.9s-9.9.4-8.9,8.7c2.8-2.7,8.9-8.7,8.9-8.7Z"/>
            <path class="st7" d="M396.7,741l-24-6.3s14.6,17.2,57.4,21.2c-14.6-4.9-33.4-14.8-33.4-14.8Z"/>
            <path class="st7" d="M449,703.7l3.7,10.8-13.6,7.7,29.5-5.5s-14.5-4.8-19.5-13Z"/>
            <path class="st7" d="M484.7,806.9s-6.1-3-22.2-13.7c-16-10.8-54.1-16.7-54.1-16.7,0,0,35.6,15.9,51.6,27.9H7.5v4.6h464.7v-1.1l12.5-1.1Z"/>
            <g class="st7">
              <path d="M488.9,735.9c11.4-3.7,24.6,1.1,27.6,3.6-2.7-2.9-14-13.7-31.5-9.5-6.4,1.6-12.3,4.8-18.5,8.3-24.7,13.7-55.4,11.8-77.6-5.7-.6-.5-1.2-1-1.8-1.5,12,12.4,35.9,30.8,62,25.9,6.6-1.7,16.5-7.4,25.6-12.9,2-1,3.9-2.1,5.6-3.3,3.2-1.9,6.1-3.6,8.6-4.9Z"/>
              <path d="M516.5,739.5c.4.4.6.7.6.7,0-.2-.3-.4-.6-.7Z"/>
            </g>
            <path class="st7" d="M633.6,791.3c-2.3-2.5-7.5-3.1-10.5-3.9-7.1-5.1-39.9,2-44.3,2.4-4.4.4-11.8-.9-18.2-5.9,4.2,14.2,16.7,12.8,36.2,7.9,9-2.7,21.3-1.4,29.3,1.1-.1.3-.3.7-.5,1.2-2.6,5.2-8.1,8.2-13.9,7.8s-10.8-.8-21.1-1c-31.7.6-64.4,12.3-80.8,3.6-16.4-8.7-54.2-28.2-80.4-31.4l-11.8.2s5.5,3.7,17,7.8c11.5,4.1,27.3,12.4,60.1,31.1,13.1,6.2,44.3,8.3,65.9.9,18.4-5.4,52.1-4.5,52.1-4.5,0,0,8.3-1.8,14-5,1.8-.2,3-.4,3-.4l.7-2.3c1.3-1.3,1.8-2.8,1.3-4.4l.5-.7c.2.2.5.3.7.5,1.5-1.6,3.2-2.2.7-4.9Z"/>
            <path class="st7" d="M7.5,703.7s20.2,86.2,265.5,104.8c-119.6,0-265.5.5-265.5.5v-105.3Z"/>
            <path class="st7" d="M595.5,748.1s0,5.9-11.7,8c-6.7,0-24.6-1.1-30-18.2-4.3-9.9-6.3-18.2-6.3-18.2,0,0-1.1,17.9,7,27.8,8.2,10,15.1,15,31.2,11.8,5.3-1.8,9.1-4.5,9.8-11.2Z"/>
          </g>
          <g>
            <path class="st1" d="M31.2,829.7h7.2c4.8,0,8,.2,9.6.6,1.6.4,2.8,1.3,3.6,2.8.8,1.5.9,3.9.3,7.2-.5,3-1.3,5.1-2.2,6.1-.9,1-2.5,1.7-4.8,1.9,1.9.5,3.1,1.2,3.7,2,.5.8.8,1.6.9,2.3,0,.7-.2,2.6-.8,5.8l-1.8,10.3h-9.4l2.3-12.9c.4-2.1.4-3.4.2-3.9-.2-.5-1.1-.7-2.5-.7l-3.1,17.6h-10.1l6.9-38.9ZM40.1,836.4l-1.5,8.7c1.1,0,2-.2,2.5-.5.5-.3.9-1.3,1.2-3l.4-2.1c.2-1.2.1-2-.2-2.4-.4-.4-1.1-.6-2.3-.6Z"/>
            <path class="st1" d="M107.7,829.7l-1.1,38.9h-10.3l.7-7h-3.6l-1.8,7h-10.5l12-38.9h14.6ZM97.9,854.8c.3-4.4.7-9.9,1.3-16.3-2.3,7.5-4,12.9-4.8,16.3h3.5Z"/>
            <path class="st1" d="M168.3,846.7h-10.1l1.2-6.8c.3-2,.5-3.2.3-3.7-.1-.5-.6-.7-1.3-.7s-1.4.3-1.7.9c-.3.6-.7,1.9-1,3.8l-3.2,18.1c-.3,1.9-.4,3.1-.3,3.7s.6.9,1.4.9,1.3-.3,1.6-.9.7-1.9,1.1-4.1l.9-4.9h10.1l-.3,1.5c-.7,4-1.5,6.9-2.4,8.6-.9,1.7-2.4,3.2-4.6,4.4-2.2,1.3-4.7,1.9-7.5,1.9s-5.3-.5-7-1.6c-1.7-1.1-2.7-2.6-3-4.5-.3-1.9,0-4.8.6-8.6l2-11.4c.5-2.8,1-4.9,1.4-6.3.4-1.4,1.3-2.8,2.4-4.1,1.2-1.3,2.7-2.3,4.5-3.1,1.8-.7,3.8-1.1,6-1.1s5.3.6,7.1,1.7c1.7,1.2,2.8,2.6,3.1,4.3s.1,4.4-.5,8l-.7,3.7Z"/>
            <path class="st1" d="M217.6,829.7l-6.9,38.9h-10.1l6.9-38.9h10.1Z"/>
            <path class="st1" d="M276.7,829.7l-6.9,38.9h-8.9l-2.1-17.7-3.1,17.7h-8.5l6.9-38.9h8.5l2.6,17.5,3.1-17.5h8.5Z"/>
            <path class="st1" d="M334,844.1h-10.1l.6-3.5c.4-2.2.5-3.6.4-4.2,0-.6-.5-.8-1.2-.8s-1.1.2-1.4.7c-.3.5-.6,1.7-1,3.7l-3.3,18.7c-.3,1.7-.4,2.9-.3,3.5.1.6.5.8,1.2.8s1.3-.3,1.7-.9.7-1.8,1-3.7l.8-4.6h-2l1-5.9h11.9l-3.7,20.9h-6.4l-.4-2.8c-.9,1.2-1.9,2.1-3.1,2.7-1.2.6-2.4.9-3.9.9s-3.2-.4-4.6-1.2c-1.3-.8-2.3-1.8-2.8-3.1-.6-1.2-.8-2.5-.8-3.8,0-1.3.3-3.3.8-6l2-11.6c.7-3.7,1.3-6.4,2-8.1.7-1.7,2.1-3.2,4.3-4.6,2.1-1.4,4.7-2.1,7.7-2.1s5.3.6,7.1,1.8c1.7,1.2,2.8,2.7,3.1,4.3.3,1.7.2,4.1-.4,7.3l-.3,1.7Z"/>
          </g>
        </g>
      </g>
      <g>
        <path class="st1" d="M639.1,75.9c-2.5-5.9-5.9-11.3-10.2-16.1-2.3-2.6-5.7-4.2-9.1-4.3-9.2-.3-18.2-3-26-7.7-8.4-5-15.3-12.3-20-21-6.1-11.5-18-18.6-31-18.6h-70.4c-8.7,0-17.2-2.5-24.5-7.1-1.2-.8-2.6-1.2-4-1.2h0c-1.8,0-3.5.6-4.9,1.8-1.9,1.6-2.8,4-2.6,6.4H0v119.8h485.8c8.9,4.7,16.8,7.6,24.7,8.9,4.1.7,8.3,1,12.8,1,12.4,0,24.4-2.6,36-5l2.8-.6c14.7-3.1,27.3-4.5,39.9-4.5s4.7,0,7,.2c.8,0,1.6,0,2.3,0,16.5,0,23.8-8.4,26.9-15.7l3.4-4.3c1.1-1.3,1.6-3,1.6-4.7,0-6.9-1.4-20.4-4.3-27.4Z"/>
        <g>
          <g>
            <g>
              <g>
                <polyline points="526.8 15.7 7.5 15.7 7.5 120.5 538.4 120.5"/>
                <polygon points="538.4 123 5 123 5 13.2 526.8 13.2 526.8 18.2 10 18.2 10 118 538.4 118 538.4 123"/>
              </g>
              <g>
                <path class="st1" d="M632.1,78.7c-2.1-5.1-5.1-9.8-8.8-13.9-1-1.1-2.4-1.8-3.8-1.8-10.6-.4-20.8-3.5-29.6-8.8-9.4-5.7-17.3-13.8-22.7-23.9-4.8-9-14.1-14.6-24.3-14.6h-70.3c-10.1,0-20-2.9-28.5-8.2.7,1.7,2.3,4.8,5.1,8.2,1.8,2.1,4,4.4,6.9,6.3,7.4,5.1,14.8,5.8,17.8,5.9,0,0-8.5,1.2-18.2,3.2-4.7,1-9.7,2.1-14.1,3.4-16.6,4.9-22,8.8-32.7,9.8-8.6.8-21-.3-37-9.6,17.1,13.8,36.5,27.9,58.3,33.1,6.2,1.5,12.7,2.1,19,1.2,12.7-1.8,21.7-11.2,32.5-17.2,5.8-3.3,12.4-5.7,19.1-5.6,6.7,0,13.6,2.9,17.4,8.4,10.7,15.3-5.6,32.1-20.9,33.4-10.5.9-18.9-3.5-28.8-5.5-8.9-1.8-18.8-.8-27.8,0-7.6.6-29,3.4-32.2,4.4,12.8,2,25.6,5.8,37.7,10.2,23.2,8.5,40.8,28.3,65.6,32.4,16.4,2.7,32.8-1.2,48.8-4.5,16.3-3.4,32.1-5.3,48.8-4.6,9.6.4,18.6-2.1,22.4-12l4.1-5.1c0-6.4-1.3-18.8-3.7-24.6Z"/>
                <path d="M523.4,132.9c-4,0-8-.3-12-.9-14.8-2.5-27.2-10.4-39.2-18-8.5-5.4-17.4-11.1-26.9-14.6-13.9-5.1-26-8.4-37.2-10.1-1.1-.2-2-1.1-2.1-2.3s.6-2.2,1.8-2.6c3.6-1.1,25.6-4,32.7-4.5l2.6-.2c8.6-.7,17.4-1.4,25.8.3,3.3.7,6.5,1.6,9.5,2.5,6.1,1.8,11.9,3.6,18.5,3,8.4-.7,17-6.6,20.5-13.9,1.7-3.7,2.9-9.3-1.4-15.5-3.1-4.5-9-7.3-15.4-7.3,0,0-.2,0-.2,0-5.4,0-11.3,1.8-17.6,5.3-3.2,1.8-6.4,4-9.5,6.2-7.1,4.9-14.5,10-23.8,11.4-6.1.9-12.8.4-19.9-1.3-22.2-5.3-41.6-19.3-59.3-33.6-1-.8-1.2-2.3-.5-3.4.7-1.1,2.2-1.4,3.3-.7,12.3,7.1,24.3,10.2,35.5,9.2,6.1-.5,10.5-2.2,16.6-4.4,4-1.5,8.9-3.3,15.5-5.2,3.9-1.2,8.7-2.3,14.3-3.5,2-.4,3.9-.8,5.8-1.1-2.1-.9-4.2-2-6.3-3.5-2.8-1.9-5.3-4.2-7.4-6.8-2.2-2.6-4-5.6-5.4-8.8-.4-1-.2-2.2.7-2.9.8-.7,2-.8,3-.2,8.2,5.1,17.6,7.8,27.2,7.8h70.3c11.1,0,21.3,6.1,26.5,15.9,5.1,9.5,12.6,17.4,21.8,22.9,8.6,5.2,18.4,8.1,28.4,8.4,2.1,0,4.2,1,5.6,2.6,3.9,4.3,7,9.3,9.3,14.7h0c2.5,6.1,3.9,18.8,3.9,25.5s-.2,1.1-.5,1.6l-3.8,4.8c-3.8,9.3-12.1,13.8-24.7,13.2-15.2-.7-30.5.8-48.1,4.5l-2.8.6c-11.4,2.4-23.1,4.9-34.9,4.9ZM422.3,87.1c7.7,1.9,15.9,4.4,24.7,7.7,10.1,3.7,19.1,9.5,27.9,15,12.1,7.7,23.5,15,37.3,17.3,15,2.5,30.3-.8,45.1-3.9l2.8-.6c18.1-3.8,33.8-5.3,49.4-4.6,10.6.5,17.1-2.9,19.9-10.4,0-.2.2-.5.4-.7l3.5-4.4c-.1-6.4-1.3-17.6-3.5-22.8-2-4.9-4.8-9.3-8.4-13.2-.5-.6-1.3-1-2.1-1-10.9-.4-21.5-3.5-30.8-9.1-10-6-18.1-14.6-23.6-24.8-4.4-8.2-12.8-13.3-22.1-13.3h-70.3c-7.5,0-14.9-1.5-21.8-4.4,0,.1.2.2.3.3,1.9,2.3,4,4.2,6.4,5.9,6.2,4.2,12.4,5.3,16.5,5.5,1.3,0,2.3,1.1,2.4,2.4s-.9,2.4-2.1,2.6c0,0-8.6,1.2-18,3.2-5.5,1.1-10.1,2.3-13.9,3.4-6.4,1.9-11.1,3.6-15.2,5.1-6.5,2.4-11.1,4.1-17.9,4.7-6.5.6-13.2,0-19.9-2,12.8,9.2,26.6,17,41.6,20.5,6.5,1.5,12.6,1.9,18.1,1.2,8.1-1.1,14.7-5.7,21.7-10.5,3.2-2.2,6.5-4.5,9.9-6.4,7.2-4,14-6,20.3-5.9,8,0,15.4,3.7,19.5,9.5,4.4,6.3,5.1,13.6,1.9,20.5-4.1,8.9-14.5,15.9-24.6,16.8-7.5.7-14.1-1.3-20.4-3.2-2.9-.9-6-1.8-9.1-2.4-7.7-1.6-16.2-.9-24.4-.2l-2.6.2c-4.1.3-11.8,1.2-18.6,2.2Z"/>
              </g>
              <g>
                <path class="st1" d="M50.6,32.2h19.6c5.3,0,9.3.4,12,1.2,2.7.8,4.6,2,5.8,3.6,1.2,1.6,1.8,3.5,1.9,5.7.1,2.2-.2,5.7-1.1,10.4l-1.1,6.5c-.8,4.8-1.9,8.3-3.3,10.4-1.4,2.2-3.5,3.9-6.3,5-2.8,1.2-6.4,1.8-10.6,1.8h-5.2l-5.3,30.1h-19.5l13.2-74.8ZM67.8,45l-3.4,19c.5,0,1,0,1.4,0,1.8,0,3.1-.4,4-1.3.8-.9,1.5-2.7,2-5.5l1.1-6.1c.5-2.6.3-4.2-.3-5-.7-.8-2.3-1.2-4.8-1.2Z"/>
                <path class="st1" d="M117.6,32.2l-13.2,74.8h-19.5l13.2-74.8h19.5Z"/>
                <path class="st1" d="M171.8,32.2l-17.1,33.8,5,41h-20.1l-2.2-32.1-5.7,32.1h-19.5l13.2-74.8h19.5l-5.1,29.1,13.8-29.1h18.3Z"/>
                <path class="st1" d="M210.4,32.2l-2.6,15-22.4,44.9h14.5l-2.6,15h-35.9l1.9-10.9,23.6-49h-13.2l2.6-15h34.1Z"/>
                <path class="st1" d="M234.9,32.2l-13.2,74.8h-19.5l13.2-74.8h19.5Z"/>
                <path class="st1" d="M262.2,32.2l-10.6,59.8h11.8l-2.6,15h-31.3l13.2-74.8h19.5Z"/>
                <path class="st1" d="M298.2,32.2l-10.6,59.8h11.8l-2.6,15h-31.3l13.2-74.8h19.5Z"/>
                <path class="st1" d="M350.7,32.2l-2.1,74.8h-19.9l1.3-13.4h-7l-3.5,13.4h-20.1l23.1-74.8h28.1ZM331.9,80.3c.5-8.5,1.4-18.9,2.6-31.4-4.5,14.3-7.6,24.8-9.3,31.4h6.7Z"/>
              </g>
              <path d="M633.6,105.8c-.4,0-.9-.1-1.3-.4-12.6-7.6-28-5-42.8-2.6-2,.3-4,.7-6,1-8.6,1.3-17.6-.9-24.5-6-.4-.3-.6-.5-.6-.5-1.1-.9-1.3-2.4-.4-3.5.9-1.1,2.4-1.3,3.5-.4,0,0,.2.1.5.4,5.9,4.3,13.4,6.2,20.8,5.1,1.9-.3,3.9-.6,5.9-1,15-2.5,32-5.3,46.2,3.2,1.2.7,1.6,2.2.9,3.4-.5.8-1.3,1.2-2.1,1.2Z"/>
              <path d="M621.6,81.8c-1.2,0-2.3-.9-2.5-2.1-.4-2.6-1.6-4.9-2.2-5.4-.1,0-.4.2-.7.6-.9,1-2.5,1.1-3.5.1-1-.9-1.1-2.5-.1-3.5,2.3-2.4,4.4-2.4,5.8-2,4.3,1.3,5.6,8.6,5.8,9.4.2,1.4-.7,2.6-2.1,2.9-.1,0-.3,0-.4,0Z"/>
              <g>
                <path class="st1" d="M595.5,60.1s.6,6.6-16.2,8c-8.6-1.4-22.5-4.3-30.7-33.9,6.7,4.5,21.3,11.2,21.3,11.2l8.8,2.9c4.8,6,13,9.9,16.8,11.8Z"/>
                <path d="M578.4,70.6c-.5,0-1.1,0-1.6,0-20.1-1.3-30.3-27-31.9-38.5-.2-1.1.4-2.1,1.4-2.6,1-.5,2.2-.2,2.9.6,9.9,11,21.7,13.4,29.9,13.5,1.4,0,2.5,1.1,2.5,2.5,0,1.4-1.1,2.5-2.5,2.5h0c-7.5,0-17.7-1.9-27.2-9.2,3.6,10.7,11.8,25.4,25.2,26.2,3.9.3,8-.7,12.3-2.7,1.2-.6,2.7,0,3.3,1.2.6,1.2,0,2.7-1.2,3.3-4.5,2.2-9,3.2-13.2,3.2Z"/>
                <g>
                  <ellipse class="st1" cx="575.3" cy="58.1" rx="5" ry="9.9" transform="translate(-2.4 82.8) rotate(-8.2)"/>
                  <path d="M576.3,70.3c-2,0-4-1.2-5.6-3.4-1.4-2-2.4-4.8-2.9-7.8-.4-3-.2-5.9.6-8.3,1-2.9,2.8-4.7,5.1-5,4.2-.6,8.2,4.2,9.2,11.2.4,3,.2,5.9-.6,8.3-1,2.9-2.8,4.7-5.1,5-.3,0-.5,0-.8,0ZM574.3,50.8s0,0,0,0c-.1,0-.7.5-1.1,1.7-.5,1.6-.7,3.8-.3,5.9.3,2.2,1,4.2,2,5.6.7,1.1,1.4,1.3,1.5,1.3.1,0,.7-.5,1.1-1.7.5-1.6.7-3.8.3-5.9-.7-4.6-2.8-6.9-3.5-6.9Z"/>
                </g>
              </g>
              <path d="M506.5,66.1c0-5.5-7-9.2-11.5-5.3-1,.9-1.7,2.1-2.7,3.2s-2.1,2-3.4,2.7c-.7.4-1.4.6-2.1.8s-1.5.2-2.2.2c2.2,1,4.1,2.4,6.1,3.7,2.4,1.5,5.2,1.9,7.9,1.8,3.4-.1,6.7-2.1,7.6-5.5.1-.5.2-1,.2-1.6Z"/>
              <path d="M410.3,25.5c-1.7-.8-3.8-.7-5.5-.3-2.2.5-4.6,1.8-5.9,3.6-.2.3-.7.8-.6,1.2,2.1-.2,4.4,0,6.4.9.8.3,1.5.8,2.3,1.1s1.7.6,2.5.5c1.3,0,2.5-.9,3-2.1s.4-2.6-.4-3.6c-.5-.6-1.1-1.1-1.8-1.4Z"/>
              <path d="M382.4,95.8c1.3-2.8,4-5,6.6-6.4,3.3-1.7,7.7-2.8,11.3-2,.6.1,1.7.3,2.1.8-2.9,2-5.5,5-7,8.2-.6,1.3-1.1,2.7-1.7,4-.6,1.3-1.4,2.6-2.5,3.5-1.7,1.3-4.1,1.6-6.1.7s-3.3-2.9-3.5-5c0-1.3.2-2.6.7-3.8Z"/>
            </g>
            <path class="st7" d="M617.3,71.7s6.1,3.8,4.3,8.7c-4.2-3.3-7.9-.6-7.2-5.9,0-3.8,2.9-2.7,2.9-2.7Z"/>
            <path class="st7" d="M521.4,63.9s-1.9-2.3-5.5-4.6c-9.4-6-21.5-6-31.2-.4-16.6,9.7-33.7,17.1-50.3,10,11.7.4,31.6-2.1,44.8-15.7,9-6.1,36.5-14.9,42.3,10.7Z"/>
            <path class="st7" d="M557.6,82.9s-9.9.4-8.9,8.7c2.8-2.7,8.9-8.7,8.9-8.7Z"/>
            <path class="st7" d="M396.7,53l-24-6.3s14.6,17.2,57.4,21.2c-14.6-4.9-33.4-14.8-33.4-14.8Z"/>
            <path class="st7" d="M449,15.7l3.7,10.8-13.6,7.7,29.5-5.5s-14.5-4.8-19.5-13Z"/>
            <path class="st7" d="M484.7,118.9s-6.1-3-22.2-13.7c-16-10.8-54.1-16.7-54.1-16.7,0,0,35.6,15.9,51.6,27.9H7.5v4.6h464.7v-1.1l12.5-1.1Z"/>
            <g class="st7">
              <path d="M488.9,47.9c11.4-3.7,24.6,1.1,27.6,3.6-2.7-2.9-14-13.7-31.5-9.5-6.4,1.6-12.3,4.8-18.5,8.3-24.7,13.7-55.4,11.8-77.6-5.7-.6-.5-1.2-1-1.8-1.5,12,12.4,35.9,30.8,62,25.9,6.6-1.7,16.5-7.4,25.6-12.9,2-1,3.9-2.1,5.6-3.3,3.2-1.9,6.1-3.6,8.6-4.9Z"/>
              <path d="M516.5,51.5c.4.4.6.7.6.7,0-.2-.3-.4-.6-.7Z"/>
            </g>
            <path class="st7" d="M633.6,103.3c-2.3-2.5-7.5-3.1-10.5-3.9-7.1-5.1-39.9,2-44.3,2.4-4.4.4-11.8-.9-18.2-5.9,4.2,14.2,16.7,12.8,36.2,7.9,9-2.7,21.3-1.4,29.3,1.1-.1.3-.3.7-.5,1.2-2.6,5.2-8.1,8.2-13.9,7.8s-10.8-.8-21.1-1c-31.7.6-64.4,12.3-80.8,3.6-16.4-8.7-54.2-28.2-80.4-31.4l-11.8.2s5.5,3.7,17,7.8c11.5,4.1,27.3,12.4,60.1,31.1,13.1,6.2,44.3,8.3,65.9.9,18.4-5.4,52.1-4.5,52.1-4.5,0,0,8.3-1.8,14-5,1.8-.2,3-.4,3-.4l.7-2.3c1.3-1.3,1.8-2.8,1.3-4.4l.5-.7c.2.2.5.3.7.5,1.5-1.6,3.2-2.2.7-4.9Z"/>
            <path class="st7" d="M7.5,15.7s20.2,86.2,265.5,104.8c-119.6,0-265.5.5-265.5.5V15.7Z"/>
            <path class="st7" d="M595.5,60.1s0,5.9-11.7,8c-6.7,0-24.6-1.1-30-18.2-4.3-9.9-6.3-18.2-6.3-18.2,0,0-1.1,17.9,7,27.8,8.2,10,15.1,15,31.2,11.8,5.3-1.8,9.1-4.5,9.8-11.2Z"/>
          </g>
          <g>
            <path d="M31.2,141.7h7.2c4.8,0,8,.2,9.6.6,1.6.4,2.8,1.3,3.6,2.8.8,1.5.9,3.9.3,7.2-.5,3-1.3,5.1-2.2,6.1-.9,1-2.5,1.7-4.8,1.9,1.9.5,3.1,1.2,3.7,2,.5.8.8,1.6.9,2.3,0,.7-.2,2.6-.8,5.8l-1.8,10.3h-9.4l2.3-12.9c.4-2.1.4-3.4.2-3.9-.2-.5-1.1-.7-2.5-.7l-3.1,17.6h-10.1l6.9-38.9ZM40.1,148.4l-1.5,8.7c1.1,0,2-.2,2.5-.5.5-.3.9-1.3,1.2-3l.4-2.1c.2-1.2.1-2-.2-2.4-.4-.4-1.1-.6-2.3-.6Z"/>
            <path d="M107.7,141.7l-1.1,38.9h-10.3l.7-7h-3.6l-1.8,7h-10.5l12-38.9h14.6ZM97.9,166.8c.3-4.4.7-9.9,1.3-16.3-2.3,7.5-4,12.9-4.8,16.3h3.5Z"/>
            <path d="M168.3,158.7h-10.1l1.2-6.8c.3-2,.5-3.2.3-3.7-.1-.5-.6-.7-1.3-.7s-1.4.3-1.7.9c-.3.6-.7,1.9-1,3.8l-3.2,18.1c-.3,1.9-.4,3.1-.3,3.7s.6.9,1.4.9,1.3-.3,1.6-.9.7-1.9,1.1-4.1l.9-4.9h10.1l-.3,1.5c-.7,4-1.5,6.9-2.4,8.6-.9,1.7-2.4,3.2-4.6,4.4-2.2,1.3-4.7,1.9-7.5,1.9s-5.3-.5-7-1.6c-1.7-1.1-2.7-2.6-3-4.5-.3-1.9,0-4.8.6-8.6l2-11.4c.5-2.8,1-4.9,1.4-6.3.4-1.4,1.3-2.8,2.4-4.1,1.2-1.3,2.7-2.3,4.5-3.1,1.8-.7,3.8-1.1,6-1.1s5.3.6,7.1,1.7c1.7,1.2,2.8,2.6,3.1,4.3s.1,4.4-.5,8l-.7,3.7Z"/>
            <path d="M217.6,141.7l-6.9,38.9h-10.1l6.9-38.9h10.1Z"/>
            <path d="M276.7,141.7l-6.9,38.9h-8.9l-2.1-17.7-3.1,17.7h-8.5l6.9-38.9h8.5l2.6,17.5,3.1-17.5h8.5Z"/>
            <path d="M334,156.1h-10.1l.6-3.5c.4-2.2.5-3.6.4-4.2,0-.6-.5-.8-1.2-.8s-1.1.2-1.4.7c-.3.5-.6,1.7-1,3.7l-3.3,18.7c-.3,1.7-.4,2.9-.3,3.5.1.6.5.8,1.2.8s1.3-.3,1.7-.9.7-1.8,1-3.7l.8-4.6h-2l1-5.9h11.9l-3.7,20.9h-6.4l-.4-2.8c-.9,1.2-1.9,2.1-3.1,2.7-1.2.6-2.4.9-3.9.9s-3.2-.4-4.6-1.2c-1.3-.8-2.3-1.8-2.8-3.1-.6-1.2-.8-2.5-.8-3.8,0-1.3.3-3.3.8-6l2-11.6c.7-3.7,1.3-6.4,2-8.1.7-1.7,2.1-3.2,4.3-4.6,2.1-1.4,4.7-2.1,7.7-2.1s5.3.6,7.1,1.8c1.7,1.2,2.8,2.7,3.1,4.3.3,1.7.2,4.1-.4,7.3l-.3,1.7Z"/>
          </g>
        </g>
      </g>
      <g>
        <path class="st1" d="M639.1,290.7c-2.5-5.9-5.9-11.3-10.2-16.1-2.3-2.6-5.7-4.2-9.1-4.3-9.2-.3-18.2-3-26-7.7-8.4-5-15.3-12.3-20-21-6.1-11.5-18-18.6-31-18.6h-70.4c-8.7,0-17.2-2.5-24.5-7.1-1.2-.8-2.6-1.2-4-1.2h0c-1.8,0-3.5.6-4.9,1.8-1.9,1.6-2.8,4-2.6,6.4H0v119.8h485.8c8.9,4.7,16.8,7.6,24.7,8.9,4.1.7,8.3,1,12.8,1,12.4,0,24.4-2.6,36-5l2.8-.6c14.7-3.1,27.3-4.5,39.9-4.5s4.7,0,7,.2c.8,0,1.6,0,2.3,0,16.5,0,23.8-8.4,26.9-15.7l3.4-4.3c1.1-1.3,1.6-3,1.6-4.7,0-6.9-1.4-20.4-4.3-27.4Z"/>
        <g>
          <g>
            <g>
              <g>
                <polyline class="st1" points="526.8 230.6 7.5 230.6 7.5 335.4 538.4 335.4"/>
                <polygon points="538.4 337.9 5 337.9 5 228.1 526.8 228.1 526.8 233.1 10 233.1 10 332.9 538.4 332.9 538.4 337.9"/>
              </g>
              <g>
                <path class="st1" d="M632.1,293.6c-2.1-5.1-5.1-9.8-8.8-13.9-1-1.1-2.4-1.8-3.8-1.8-10.6-.4-20.8-3.5-29.6-8.8-9.4-5.7-17.3-13.8-22.7-23.9-4.8-9-14.1-14.6-24.3-14.6h-70.3c-10.1,0-20-2.9-28.5-8.2.7,1.7,2.3,4.8,5.1,8.2,1.8,2.1,4,4.4,6.9,6.3,7.4,5.1,14.8,5.8,17.8,5.9,0,0-8.5,1.2-18.2,3.2-4.7,1-9.7,2.1-14.1,3.4-16.6,4.9-22,8.8-32.7,9.8-8.6.8-21-.3-37-9.6,17.1,13.8,36.5,27.9,58.3,33.1,6.2,1.5,12.7,2.1,19,1.2,12.7-1.8,21.7-11.2,32.5-17.2,5.8-3.3,12.4-5.7,19.1-5.6,6.7,0,13.6,2.9,17.4,8.4,10.7,15.3-5.6,32.1-20.9,33.4-10.5.9-18.9-3.5-28.8-5.5-8.9-1.8-18.8-.8-27.8,0-7.6.6-29,3.4-32.2,4.4,12.8,2,25.6,5.8,37.7,10.2,23.2,8.5,40.8,28.3,65.6,32.4,16.4,2.7,32.8-1.2,48.8-4.5,16.3-3.4,32.1-5.3,48.8-4.6,9.6.4,18.6-2.1,22.4-12l4.1-5.1c0-6.4-1.3-18.8-3.7-24.6Z"/>
                <path d="M523.4,347.8c-4,0-8-.3-12-.9-14.8-2.5-27.2-10.4-39.2-18-8.5-5.4-17.4-11.1-26.9-14.6-13.9-5.1-26-8.4-37.2-10.1-1.1-.2-2-1.1-2.1-2.3s.6-2.2,1.8-2.6c3.6-1.1,25.6-4,32.7-4.5l2.6-.2c8.6-.7,17.4-1.4,25.8.3,3.3.7,6.5,1.6,9.5,2.5,6.1,1.8,11.9,3.6,18.5,3,8.4-.7,17-6.6,20.5-13.9,1.7-3.7,2.9-9.3-1.4-15.5-3.1-4.5-9-7.3-15.4-7.3,0,0-.2,0-.2,0-5.4,0-11.3,1.8-17.6,5.3-3.2,1.8-6.4,4-9.5,6.2-7.1,4.9-14.5,10-23.8,11.4-6.1.9-12.8.4-19.9-1.3-22.2-5.3-41.6-19.3-59.3-33.6-1-.8-1.2-2.3-.5-3.4.7-1.1,2.2-1.4,3.3-.7,12.3,7.1,24.3,10.2,35.5,9.2,6.1-.5,10.5-2.2,16.6-4.4,4-1.5,8.9-3.3,15.5-5.2,3.9-1.2,8.7-2.3,14.3-3.5,2-.4,3.9-.8,5.8-1.1-2.1-.9-4.2-2-6.3-3.5-2.8-1.9-5.3-4.2-7.4-6.8-2.2-2.6-4-5.6-5.4-8.8-.4-1-.2-2.2.7-2.9.8-.7,2-.8,3-.2,8.2,5.1,17.6,7.8,27.2,7.8h70.3c11.1,0,21.3,6.1,26.5,15.9,5.1,9.5,12.6,17.4,21.8,22.9,8.6,5.2,18.4,8.1,28.4,8.4,2.1,0,4.2,1,5.6,2.6,3.9,4.3,7,9.3,9.3,14.7h0c2.5,6.1,3.9,18.8,3.9,25.5s-.2,1.1-.5,1.6l-3.8,4.8c-3.8,9.3-12.1,13.8-24.7,13.2-15.2-.7-30.5.8-48.1,4.5l-2.8.6c-11.4,2.4-23.1,4.9-34.9,4.9ZM422.3,301.9c7.7,1.9,15.9,4.4,24.7,7.7,10.1,3.7,19.1,9.5,27.9,15,12.1,7.7,23.5,15,37.3,17.3,15,2.5,30.3-.8,45.1-3.9l2.8-.6c18.1-3.8,33.8-5.3,49.4-4.6,10.6.5,17.1-2.9,19.9-10.4,0-.2.2-.5.4-.7l3.5-4.4c-.1-6.4-1.3-17.6-3.5-22.8-2-4.9-4.8-9.3-8.4-13.2-.5-.6-1.3-1-2.1-1-10.9-.4-21.5-3.5-30.8-9.1-10-6-18.1-14.6-23.6-24.8-4.4-8.2-12.8-13.3-22.1-13.3h-70.3c-7.5,0-14.9-1.5-21.8-4.4,0,.1.2.2.3.3,1.9,2.3,4,4.2,6.4,5.9,6.2,4.2,12.4,5.3,16.5,5.5,1.3,0,2.3,1.1,2.4,2.4s-.9,2.4-2.1,2.6c0,0-8.6,1.2-18,3.2-5.5,1.1-10.1,2.3-13.9,3.4-6.4,1.9-11.1,3.6-15.2,5.1-6.5,2.4-11.1,4.1-17.9,4.7-6.5.6-13.2,0-19.9-2,12.8,9.2,26.6,17,41.6,20.5,6.5,1.5,12.6,1.9,18.1,1.2,8.1-1.1,14.7-5.7,21.7-10.5,3.2-2.2,6.5-4.5,9.9-6.4,7.2-4,14-6,20.3-5.9,8,0,15.4,3.7,19.5,9.5,4.4,6.3,5.1,13.6,1.9,20.5-4.1,8.9-14.5,15.9-24.6,16.8-7.5.7-14.1-1.3-20.4-3.2-2.9-.9-6-1.8-9.1-2.4-7.7-1.6-16.2-.9-24.4-.2l-2.6.2c-4.1.3-11.8,1.2-18.6,2.2Z"/>
              </g>
              <g>
                <path d="M50.6,247h19.6c5.3,0,9.3.4,12,1.2,2.7.8,4.6,2,5.8,3.6,1.2,1.6,1.8,3.5,1.9,5.7.1,2.2-.2,5.7-1.1,10.4l-1.1,6.5c-.8,4.8-1.9,8.3-3.3,10.4-1.4,2.2-3.5,3.9-6.3,5-2.8,1.2-6.4,1.8-10.6,1.8h-5.2l-5.3,30.1h-19.5l13.2-74.8ZM67.8,259.8l-3.4,19c.5,0,1,0,1.4,0,1.8,0,3.1-.4,4-1.3.8-.9,1.5-2.7,2-5.5l1.1-6.1c.5-2.6.3-4.2-.3-5-.7-.8-2.3-1.2-4.8-1.2Z"/>
                <path d="M117.6,247l-13.2,74.8h-19.5l13.2-74.8h19.5Z"/>
                <path d="M171.8,247l-17.1,33.8,5,41h-20.1l-2.2-32.1-5.7,32.1h-19.5l13.2-74.8h19.5l-5.1,29.1,13.8-29.1h18.3Z"/>
                <path d="M210.4,247l-2.6,15-22.4,44.9h14.5l-2.6,15h-35.9l1.9-10.9,23.6-49h-13.2l2.6-15h34.1Z"/>
                <path d="M234.9,247l-13.2,74.8h-19.5l13.2-74.8h19.5Z"/>
                <path d="M262.2,247l-10.6,59.8h11.8l-2.6,15h-31.3l13.2-74.8h19.5Z"/>
                <path d="M298.2,247l-10.6,59.8h11.8l-2.6,15h-31.3l13.2-74.8h19.5Z"/>
                <path d="M350.7,247l-2.1,74.8h-19.9l1.3-13.4h-7l-3.5,13.4h-20.1l23.1-74.8h28.1ZM331.9,295.1c.5-8.5,1.4-18.9,2.6-31.4-4.5,14.3-7.6,24.8-9.3,31.4h6.7Z"/>
              </g>
              <path d="M633.6,320.6c-.4,0-.9-.1-1.3-.4-12.6-7.6-28-5-42.8-2.6-2,.3-4,.7-6,1-8.6,1.3-17.6-.9-24.5-6-.4-.3-.6-.5-.6-.5-1.1-.9-1.3-2.4-.4-3.5.9-1.1,2.4-1.3,3.5-.4,0,0,.2.1.5.4,5.9,4.3,13.4,6.2,20.8,5.1,1.9-.3,3.9-.6,5.9-1,15-2.5,32-5.3,46.2,3.2,1.2.7,1.6,2.2.9,3.4-.5.8-1.3,1.2-2.1,1.2Z"/>
              <path d="M621.6,296.6c-1.2,0-2.3-.9-2.5-2.1-.4-2.6-1.6-4.9-2.2-5.4-.1,0-.4.2-.7.6-.9,1-2.5,1.1-3.5.1-1-.9-1.1-2.5-.1-3.5,2.3-2.4,4.4-2.4,5.8-2,4.3,1.3,5.6,8.6,5.8,9.4.2,1.4-.7,2.6-2.1,2.9-.1,0-.3,0-.4,0Z"/>
              <g>
                <path class="st1" d="M595.5,275s.6,6.6-16.2,8c-8.6-1.4-22.5-4.3-30.7-33.9,6.7,4.5,21.3,11.2,21.3,11.2l8.8,2.9c4.8,6,13,9.9,16.8,11.8Z"/>
                <path d="M578.4,285.5c-.5,0-1.1,0-1.6,0-20.1-1.3-30.3-27-31.9-38.5-.2-1.1.4-2.1,1.4-2.6,1-.5,2.2-.2,2.9.6,9.9,11,21.7,13.4,29.9,13.5,1.4,0,2.5,1.1,2.5,2.5,0,1.4-1.1,2.5-2.5,2.5h0c-7.5,0-17.7-1.9-27.2-9.2,3.6,10.7,11.8,25.4,25.2,26.2,3.9.3,8-.7,12.3-2.7,1.2-.6,2.7,0,3.3,1.2.6,1.2,0,2.7-1.2,3.3-4.5,2.2-9,3.2-13.2,3.2Z"/>
                <g>
                  <ellipse class="st1" cx="575.3" cy="272.9" rx="5" ry="9.9" transform="translate(-33.1 85) rotate(-8.2)"/>
                  <path d="M576.3,285.2c-2,0-4-1.2-5.6-3.4-1.4-2-2.4-4.8-2.9-7.8-.4-3-.2-5.9.6-8.3,1-2.9,2.8-4.7,5.1-5,4.2-.6,8.2,4.2,9.2,11.2.4,3,.2,5.9-.6,8.3-1,2.9-2.8,4.7-5.1,5-.3,0-.5,0-.8,0ZM574.3,265.6s0,0,0,0c-.1,0-.7.5-1.1,1.7-.5,1.6-.7,3.8-.3,5.9.3,2.2,1,4.2,2,5.6.7,1.1,1.4,1.3,1.5,1.3.1,0,.7-.5,1.1-1.7.5-1.6.7-3.8.3-5.9-.7-4.6-2.8-6.9-3.5-6.9Z"/>
                </g>
              </g>
              <path d="M506.5,280.9c0-5.5-7-9.2-11.5-5.3-1,.9-1.7,2.1-2.7,3.2s-2.1,2-3.4,2.7c-.7.4-1.4.6-2.1.8s-1.5.2-2.2.2c2.2,1,4.1,2.4,6.1,3.7,2.4,1.5,5.2,1.9,7.9,1.8,3.4-.1,6.7-2.1,7.6-5.5.1-.5.2-1,.2-1.6Z"/>
              <path d="M410.3,240.3c-1.7-.8-3.8-.7-5.5-.3-2.2.5-4.6,1.8-5.9,3.6-.2.3-.7.8-.6,1.2,2.1-.2,4.4,0,6.4.9.8.3,1.5.8,2.3,1.1s1.7.6,2.5.5c1.3,0,2.5-.9,3-2.1s.4-2.6-.4-3.6c-.5-.6-1.1-1.1-1.8-1.4Z"/>
              <path d="M382.4,310.7c1.3-2.8,4-5,6.6-6.4,3.3-1.7,7.7-2.8,11.3-2,.6.1,1.7.3,2.1.8-2.9,2-5.5,5-7,8.2-.6,1.3-1.1,2.7-1.7,4-.6,1.3-1.4,2.6-2.5,3.5-1.7,1.3-4.1,1.6-6.1.7s-3.3-2.9-3.5-5c0-1.3.2-2.6.7-3.8Z"/>
            </g>
            <path class="st7" d="M617.3,286.6s6.1,3.8,4.3,8.7c-4.2-3.3-7.9-.6-7.2-5.9,0-3.8,2.9-2.7,2.9-2.7Z"/>
            <path class="st7" d="M521.4,278.8s-1.9-2.3-5.5-4.6c-9.4-6-21.5-6-31.2-.4-16.6,9.7-33.7,17.1-50.3,10,11.7.4,31.6-2.1,44.8-15.7,9-6.1,36.5-14.9,42.3,10.7Z"/>
            <path class="st7" d="M557.6,297.7s-9.9.4-8.9,8.7c2.8-2.7,8.9-8.7,8.9-8.7Z"/>
            <path class="st7" d="M396.7,267.9l-24-6.3s14.6,17.2,57.4,21.2c-14.6-4.9-33.4-14.8-33.4-14.8Z"/>
            <path class="st7" d="M449,230.6l3.7,10.8-13.6,7.7,29.5-5.5s-14.5-4.8-19.5-13Z"/>
            <path class="st7" d="M484.7,333.7s-6.1-3-22.2-13.7c-16-10.8-54.1-16.7-54.1-16.7,0,0,35.6,15.9,51.6,27.9H7.5v4.6h464.7v-1.1l12.5-1.1Z"/>
            <g class="st7">
              <path d="M488.9,262.8c11.4-3.7,24.6,1.1,27.6,3.6-2.7-2.9-14-13.7-31.5-9.5-6.4,1.6-12.3,4.8-18.5,8.3-24.7,13.7-55.4,11.8-77.6-5.7-.6-.5-1.2-1-1.8-1.5,12,12.4,35.9,30.8,62,25.9,6.6-1.7,16.5-7.4,25.6-12.9,2-1,3.9-2.1,5.6-3.3,3.2-1.9,6.1-3.6,8.6-4.9Z"/>
              <path d="M516.5,266.3c.4.4.6.7.6.7,0-.2-.3-.4-.6-.7Z"/>
            </g>
            <path class="st7" d="M633.6,318.1c-2.3-2.5-7.5-3.1-10.5-3.9-7.1-5.1-39.9,2-44.3,2.4-4.4.4-11.8-.9-18.2-5.9,4.2,14.2,16.7,12.8,36.2,7.9,9-2.7,21.3-1.4,29.3,1.1-.1.3-.3.7-.5,1.2-2.6,5.2-8.1,8.2-13.9,7.8s-10.8-.8-21.1-1c-31.7.6-64.4,12.3-80.8,3.6-16.4-8.7-54.2-28.2-80.4-31.4l-11.8.2s5.5,3.7,17,7.8c11.5,4.1,27.3,12.4,60.1,31.1,13.1,6.2,44.3,8.3,65.9.9,18.4-5.4,52.1-4.5,52.1-4.5,0,0,8.3-1.8,14-5,1.8-.2,3-.4,3-.4l.7-2.3c1.3-1.3,1.8-2.8,1.3-4.4l.5-.7c.2.2.5.3.7.5,1.5-1.6,3.2-2.2.7-4.9Z"/>
            <path class="st7" d="M7.5,230.6s20.2,86.2,265.5,104.8c-119.6,0-265.5.5-265.5.5v-105.3Z"/>
            <path class="st7" d="M595.5,275s0,5.9-11.7,8c-6.7,0-24.6-1.1-30-18.2-4.3-9.9-6.3-18.2-6.3-18.2,0,0-1.1,17.9,7,27.8,8.2,10,15.1,15,31.2,11.8,5.3-1.8,9.1-4.5,9.8-11.2Z"/>
          </g>
          <g>
            <path d="M31.2,356.6h7.2c4.8,0,8,.2,9.6.6,1.6.4,2.8,1.3,3.6,2.8.8,1.5.9,3.9.3,7.2-.5,3-1.3,5.1-2.2,6.1-.9,1-2.5,1.7-4.8,1.9,1.9.5,3.1,1.2,3.7,2,.5.8.8,1.6.9,2.3,0,.7-.2,2.6-.8,5.8l-1.8,10.3h-9.4l2.3-12.9c.4-2.1.4-3.4.2-3.9-.2-.5-1.1-.7-2.5-.7l-3.1,17.6h-10.1l6.9-38.9ZM40.1,363.2l-1.5,8.7c1.1,0,2-.2,2.5-.5.5-.3.9-1.3,1.2-3l.4-2.1c.2-1.2.1-2-.2-2.4-.4-.4-1.1-.6-2.3-.6Z"/>
            <path d="M107.7,356.6l-1.1,38.9h-10.3l.7-7h-3.6l-1.8,7h-10.5l12-38.9h14.6ZM97.9,381.6c.3-4.4.7-9.9,1.3-16.3-2.3,7.5-4,12.9-4.8,16.3h3.5Z"/>
            <path d="M168.3,373.5h-10.1l1.2-6.8c.3-2,.5-3.2.3-3.7-.1-.5-.6-.7-1.3-.7s-1.4.3-1.7.9c-.3.6-.7,1.9-1,3.8l-3.2,18.1c-.3,1.9-.4,3.1-.3,3.7s.6.9,1.4.9,1.3-.3,1.6-.9.7-1.9,1.1-4.1l.9-4.9h10.1l-.3,1.5c-.7,4-1.5,6.9-2.4,8.6-.9,1.7-2.4,3.2-4.6,4.4-2.2,1.3-4.7,1.9-7.5,1.9s-5.3-.5-7-1.6c-1.7-1.1-2.7-2.6-3-4.5-.3-1.9,0-4.8.6-8.6l2-11.4c.5-2.8,1-4.9,1.4-6.3.4-1.4,1.3-2.8,2.4-4.1,1.2-1.3,2.7-2.3,4.5-3.1,1.8-.7,3.8-1.1,6-1.1s5.3.6,7.1,1.7c1.7,1.2,2.8,2.6,3.1,4.3s.1,4.4-.5,8l-.7,3.7Z"/>
            <path d="M217.6,356.6l-6.9,38.9h-10.1l6.9-38.9h10.1Z"/>
            <path d="M276.7,356.6l-6.9,38.9h-8.9l-2.1-17.7-3.1,17.7h-8.5l6.9-38.9h8.5l2.6,17.5,3.1-17.5h8.5Z"/>
            <path d="M334,370.9h-10.1l.6-3.5c.4-2.2.5-3.6.4-4.2,0-.6-.5-.8-1.2-.8s-1.1.2-1.4.7c-.3.5-.6,1.7-1,3.7l-3.3,18.7c-.3,1.7-.4,2.9-.3,3.5.1.6.5.8,1.2.8s1.3-.3,1.7-.9.7-1.8,1-3.7l.8-4.6h-2l1-5.9h11.9l-3.7,20.9h-6.4l-.4-2.8c-.9,1.2-1.9,2.1-3.1,2.7-1.2.6-2.4.9-3.9.9s-3.2-.4-4.6-1.2c-1.3-.8-2.3-1.8-2.8-3.1-.6-1.2-.8-2.5-.8-3.8,0-1.3.3-3.3.8-6l2-11.6c.7-3.7,1.3-6.4,2-8.1.7-1.7,2.1-3.2,4.3-4.6,2.1-1.4,4.7-2.1,7.7-2.1s5.3.6,7.1,1.8c1.7,1.2,2.8,2.7,3.1,4.3.3,1.7.2,4.1-.4,7.3l-.3,1.7Z"/>
          </g>
        </g>
      </g>
      <g>
        <path class="st1" d="M639.1,535.7c-2.5-5.9-5.9-11.3-10.2-16.1-2.3-2.6-5.7-4.2-9.1-4.3-9.2-.3-18.2-3-26-7.7-8.4-5-15.3-12.3-20-21-6.1-11.5-18-18.6-31-18.6h-70.4c-8.7,0-17.2-2.5-24.5-7.1-1.2-.8-2.6-1.2-4-1.2h0c-1.8,0-3.5.6-4.9,1.8-1.9,1.6-2.8,4-2.6,6.4H0v119.8h485.8c8.9,4.7,16.8,7.6,24.7,8.9,4.1.7,8.3,1,12.8,1,12.4,0,24.4-2.6,36-5l2.8-.6c14.7-3.1,27.3-4.5,39.9-4.5s4.7,0,7,.2c.8,0,1.6,0,2.3,0,16.5,0,23.8-8.4,26.9-15.7l3.4-4.3c1.1-1.3,1.6-3,1.6-4.7,0-6.9-1.4-20.4-4.3-27.4Z"/>
        <g>
          <g>
            <g>
              <g>
                <polyline class="st6" points="526.8 475.6 7.5 475.6 7.5 580.4 538.4 580.4"/>
                <polygon points="538.4 582.9 5 582.9 5 473.1 526.8 473.1 526.8 478.1 10 478.1 10 577.9 538.4 577.9 538.4 582.9"/>
              </g>
              <g>
                <path class="st4" d="M632.1,538.6c-2.1-5.1-5.1-9.8-8.8-13.9-1-1.1-2.4-1.8-3.8-1.8-10.6-.4-20.8-3.5-29.6-8.8-9.4-5.7-17.3-13.8-22.7-23.9-4.8-9-14.1-14.6-24.3-14.6h-70.3c-10.1,0-20-2.9-28.5-8.2.7,1.7,2.3,4.8,5.1,8.2,1.8,2.1,4,4.4,6.9,6.3,7.4,5.1,14.8,5.8,17.8,5.9,0,0-8.5,1.2-18.2,3.2-4.7,1-9.7,2.1-14.1,3.4-16.6,4.9-22,8.8-32.7,9.8-8.6.8-21-.3-37-9.6,17.1,13.8,36.5,27.9,58.3,33.1,6.2,1.5,12.7,2.1,19,1.2,12.7-1.8,21.7-11.2,32.5-17.2,5.8-3.3,12.4-5.7,19.1-5.6,6.7,0,13.6,2.9,17.4,8.4,10.7,15.3-5.6,32.1-20.9,33.4-10.5.9-18.9-3.5-28.8-5.5-8.9-1.8-18.8-.8-27.8,0-7.6.6-29,3.4-32.2,4.4,12.8,2,25.6,5.8,37.7,10.2,23.2,8.5,40.8,28.3,65.6,32.4,16.4,2.7,32.8-1.2,48.8-4.5,16.3-3.4,32.1-5.3,48.8-4.6,9.6.4,18.6-2.1,22.4-12l4.1-5.1c0-6.4-1.3-18.8-3.7-24.6Z"/>
                <path d="M523.4,592.8c-4,0-8-.3-12-.9-14.8-2.5-27.2-10.4-39.2-18-8.5-5.4-17.4-11.1-26.9-14.6-13.9-5.1-26-8.4-37.2-10.1-1.1-.2-2-1.1-2.1-2.3s.6-2.2,1.8-2.6c3.6-1.1,25.6-4,32.7-4.5l2.6-.2c8.6-.7,17.4-1.4,25.8.3,3.3.7,6.5,1.6,9.5,2.5,6.1,1.8,11.9,3.6,18.5,3,8.4-.7,17-6.6,20.5-13.9,1.7-3.7,2.9-9.3-1.4-15.5-3.1-4.5-9-7.3-15.4-7.3,0,0-.2,0-.2,0-5.4,0-11.3,1.8-17.6,5.3-3.2,1.8-6.4,4-9.5,6.2-7.1,4.9-14.5,10-23.8,11.4-6.1.9-12.8.4-19.9-1.3-22.2-5.3-41.6-19.3-59.3-33.6-1-.8-1.2-2.3-.5-3.4.7-1.1,2.2-1.4,3.3-.7,12.3,7.1,24.3,10.2,35.5,9.2,6.1-.5,10.5-2.2,16.6-4.4,4-1.5,8.9-3.3,15.5-5.2,3.9-1.2,8.7-2.3,14.3-3.5,2-.4,3.9-.8,5.8-1.1-2.1-.9-4.2-2-6.3-3.5-2.8-1.9-5.3-4.2-7.4-6.8-2.2-2.6-4-5.6-5.4-8.8-.4-1-.2-2.2.7-2.9.8-.7,2-.8,3-.2,8.2,5.1,17.6,7.8,27.2,7.8h70.3c11.1,0,21.3,6.1,26.5,15.9,5.1,9.5,12.6,17.4,21.8,22.9,8.6,5.2,18.4,8.1,28.4,8.4,2.1,0,4.2,1,5.6,2.6,3.9,4.3,7,9.3,9.3,14.7h0c2.5,6.1,3.9,18.8,3.9,25.5s-.2,1.1-.5,1.6l-3.8,4.8c-3.8,9.3-12.1,13.8-24.7,13.2-15.2-.7-30.5.8-48.1,4.5l-2.8.6c-11.4,2.4-23.1,4.9-34.9,4.9ZM422.3,547c7.7,1.9,15.9,4.4,24.7,7.7,10.1,3.7,19.1,9.5,27.9,15,12.1,7.7,23.5,15,37.3,17.3,15,2.5,30.3-.8,45.1-3.9l2.8-.6c18.1-3.8,33.8-5.3,49.4-4.6,10.6.5,17.1-2.9,19.9-10.4,0-.2.2-.5.4-.7l3.5-4.4c-.1-6.4-1.3-17.6-3.5-22.8-2-4.9-4.8-9.3-8.4-13.2-.5-.6-1.3-1-2.1-1-10.9-.4-21.5-3.5-30.8-9.1-10-6-18.1-14.6-23.6-24.8-4.4-8.2-12.8-13.3-22.1-13.3h-70.3c-7.5,0-14.9-1.5-21.8-4.4,0,.1.2.2.3.3,1.9,2.3,4,4.2,6.4,5.9,6.2,4.2,12.4,5.3,16.5,5.5,1.3,0,2.3,1.1,2.4,2.4s-.9,2.4-2.1,2.6c0,0-8.6,1.2-18,3.2-5.5,1.1-10.1,2.3-13.9,3.4-6.4,1.9-11.1,3.6-15.2,5.1-6.5,2.4-11.1,4.1-17.9,4.7-6.5.6-13.2,0-19.9-2,12.8,9.2,26.6,17,41.6,20.5,6.5,1.5,12.6,1.9,18.1,1.2,8.1-1.1,14.7-5.7,21.7-10.5,3.2-2.2,6.5-4.5,9.9-6.4,7.2-4,14-6,20.3-5.9,8,0,15.4,3.7,19.5,9.5,4.4,6.3,5.1,13.6,1.9,20.5-4.1,8.9-14.5,15.9-24.6,16.8-7.5.7-14.1-1.3-20.4-3.2-2.9-.9-6-1.8-9.1-2.4-7.7-1.6-16.2-.9-24.4-.2l-2.6.2c-4.1.3-11.8,1.2-18.6,2.2Z"/>
              </g>
              <g>
                <path class="st1" d="M50.6,492h19.6c5.3,0,9.3.4,12,1.2,2.7.8,4.6,2,5.8,3.6,1.2,1.6,1.8,3.5,1.9,5.7.1,2.2-.2,5.7-1.1,10.4l-1.1,6.5c-.8,4.8-1.9,8.3-3.3,10.4-1.4,2.2-3.5,3.9-6.3,5-2.8,1.2-6.4,1.8-10.6,1.8h-5.2l-5.3,30.1h-19.5l13.2-74.8ZM67.8,504.8l-3.4,19c.5,0,1,0,1.4,0,1.8,0,3.1-.4,4-1.3.8-.9,1.5-2.7,2-5.5l1.1-6.1c.5-2.6.3-4.2-.3-5-.7-.8-2.3-1.2-4.8-1.2Z"/>
                <path class="st1" d="M117.6,492l-13.2,74.8h-19.5l13.2-74.8h19.5Z"/>
                <path class="st1" d="M171.8,492l-17.1,33.8,5,41h-20.1l-2.2-32.1-5.7,32.1h-19.5l13.2-74.8h19.5l-5.1,29.1,13.8-29.1h18.3Z"/>
                <path class="st1" d="M210.4,492l-2.6,15-22.4,44.9h14.5l-2.6,15h-35.9l1.9-10.9,23.6-49h-13.2l2.6-15h34.1Z"/>
                <path class="st1" d="M234.9,492l-13.2,74.8h-19.5l13.2-74.8h19.5Z"/>
                <path class="st1" d="M262.2,492l-10.6,59.8h11.8l-2.6,15h-31.3l13.2-74.8h19.5Z"/>
                <path class="st1" d="M298.2,492l-10.6,59.8h11.8l-2.6,15h-31.3l13.2-74.8h19.5Z"/>
                <path class="st1" d="M350.7,492l-2.1,74.8h-19.9l1.3-13.4h-7l-3.5,13.4h-20.1l23.1-74.8h28.1ZM331.9,540.1c.5-8.5,1.4-18.9,2.6-31.4-4.5,14.3-7.6,24.8-9.3,31.4h6.7Z"/>
              </g>
              <path d="M633.6,565.7c-.4,0-.9-.1-1.3-.4-12.6-7.6-28-5-42.8-2.6-2,.3-4,.7-6,1-8.6,1.3-17.6-.9-24.5-6-.4-.3-.6-.5-.6-.5-1.1-.9-1.3-2.4-.4-3.5.9-1.1,2.4-1.3,3.5-.4,0,0,.2.1.5.4,5.9,4.3,13.4,6.2,20.8,5.1,1.9-.3,3.9-.6,5.9-1,15-2.5,32-5.3,46.2,3.2,1.2.7,1.6,2.2.9,3.4-.5.8-1.3,1.2-2.1,1.2Z"/>
              <path d="M621.6,541.6c-1.2,0-2.3-.9-2.5-2.1-.4-2.6-1.6-4.9-2.2-5.4-.1,0-.4.2-.7.6-.9,1-2.5,1.1-3.5.1-1-.9-1.1-2.5-.1-3.5,2.3-2.4,4.4-2.4,5.8-2,4.3,1.3,5.6,8.6,5.8,9.4.2,1.4-.7,2.6-2.1,2.9-.1,0-.3,0-.4,0Z"/>
              <g>
                <path class="st1" d="M595.5,520s.6,6.6-16.2,8c-8.6-1.4-22.5-4.3-30.7-33.9,6.7,4.5,21.3,11.2,21.3,11.2l8.8,2.9c4.8,6,13,9.9,16.8,11.8Z"/>
                <path d="M578.4,530.5c-.5,0-1.1,0-1.6,0-20.1-1.3-30.3-27-31.9-38.5-.2-1.1.4-2.1,1.4-2.6,1-.5,2.2-.2,2.9.6,9.9,11,21.7,13.4,29.9,13.5,1.4,0,2.5,1.1,2.5,2.5,0,1.4-1.1,2.5-2.5,2.5h0c-7.5,0-17.7-1.9-27.2-9.2,3.6,10.7,11.8,25.4,25.2,26.2,3.9.3,8-.7,12.3-2.7,1.2-.6,2.7,0,3.3,1.2.6,1.2,0,2.7-1.2,3.3-4.5,2.2-9,3.2-13.2,3.2Z"/>
                <g>
                  <ellipse class="st5" cx="575.3" cy="517.9" rx="5" ry="9.9" transform="translate(-68.1 87.5) rotate(-8.2)"/>
                  <path d="M576.3,530.2c-2,0-4-1.2-5.6-3.4-1.4-2-2.4-4.8-2.9-7.8-.4-3-.2-5.9.6-8.3,1-2.9,2.8-4.7,5.1-5,4.2-.6,8.2,4.2,9.2,11.2.4,3,.2,5.9-.6,8.3-1,2.9-2.8,4.7-5.1,5-.3,0-.5,0-.8,0ZM574.3,510.7s0,0,0,0c-.1,0-.7.5-1.1,1.7-.5,1.6-.7,3.8-.3,5.9.3,2.2,1,4.2,2,5.6.7,1.1,1.4,1.3,1.5,1.3.1,0,.7-.5,1.1-1.7.5-1.6.7-3.8.3-5.9-.7-4.6-2.8-6.9-3.5-6.9Z"/>
                </g>
              </g>
              <path d="M506.5,525.9c0-5.5-7-9.2-11.5-5.3-1,.9-1.7,2.1-2.7,3.2s-2.1,2-3.4,2.7c-.7.4-1.4.6-2.1.8s-1.5.2-2.2.2c2.2,1,4.1,2.4,6.1,3.7,2.4,1.5,5.2,1.9,7.9,1.8,3.4-.1,6.7-2.1,7.6-5.5.1-.5.2-1,.2-1.6Z"/>
              <path d="M410.3,485.4c-1.7-.8-3.8-.7-5.5-.3-2.2.5-4.6,1.8-5.9,3.6-.2.3-.7.8-.6,1.2,2.1-.2,4.4,0,6.4.9.8.3,1.5.8,2.3,1.1s1.7.6,2.5.5c1.3,0,2.5-.9,3-2.1s.4-2.6-.4-3.6c-.5-.6-1.1-1.1-1.8-1.4Z"/>
              <path d="M382.4,555.7c1.3-2.8,4-5,6.6-6.4,3.3-1.7,7.7-2.8,11.3-2,.6.1,1.7.3,2.1.8-2.9,2-5.5,5-7,8.2-.6,1.3-1.1,2.7-1.7,4-.6,1.3-1.4,2.6-2.5,3.5-1.7,1.3-4.1,1.6-6.1.7s-3.3-2.9-3.5-5c0-1.3.2-2.6.7-3.8Z"/>
            </g>
            <path class="st7" d="M617.3,531.6s6.1,3.8,4.3,8.7c-4.2-3.3-7.9-.6-7.2-5.9,0-3.8,2.9-2.7,2.9-2.7Z"/>
            <path class="st7" d="M521.4,523.8s-1.9-2.3-5.5-4.6c-9.4-6-21.5-6-31.2-.4-16.6,9.7-33.7,17.1-50.3,10,11.7.4,31.6-2.1,44.8-15.7,9-6.1,36.5-14.9,42.3,10.7Z"/>
            <path class="st7" d="M557.6,542.7s-9.9.4-8.9,8.7c2.8-2.7,8.9-8.7,8.9-8.7Z"/>
            <path class="st7" d="M396.7,512.9l-24-6.3s14.6,17.2,57.4,21.2c-14.6-4.9-33.4-14.8-33.4-14.8Z"/>
            <path class="st7" d="M449,475.6l3.7,10.8-13.6,7.7,29.5-5.5s-14.5-4.8-19.5-13Z"/>
            <path class="st7" d="M484.7,578.7s-6.1-3-22.2-13.7c-16-10.8-54.1-16.7-54.1-16.7,0,0,35.6,15.9,51.6,27.9H7.5v4.6h464.7v-1.1l12.5-1.1Z"/>
            <g class="st7">
              <path d="M488.9,507.8c11.4-3.7,24.6,1.1,27.6,3.6-2.7-2.9-14-13.7-31.5-9.5-6.4,1.6-12.3,4.8-18.5,8.3-24.7,13.7-55.4,11.8-77.6-5.7-.6-.5-1.2-1-1.8-1.5,12,12.4,35.9,30.8,62,25.9,6.6-1.7,16.5-7.4,25.6-12.9,2-1,3.9-2.1,5.6-3.3,3.2-1.9,6.1-3.6,8.6-4.9Z"/>
              <path d="M516.5,511.4c.4.4.6.7.6.7,0-.2-.3-.4-.6-.7Z"/>
            </g>
            <path class="st7" d="M633.6,563.2c-2.3-2.5-7.5-3.1-10.5-3.9-7.1-5.1-39.9,2-44.3,2.4-4.4.4-11.8-.9-18.2-5.9,4.2,14.2,16.7,12.8,36.2,7.9,9-2.7,21.3-1.4,29.3,1.1-.1.3-.3.7-.5,1.2-2.6,5.2-8.1,8.2-13.9,7.8s-10.8-.8-21.1-1c-31.7.6-64.4,12.3-80.8,3.6-16.4-8.7-54.2-28.2-80.4-31.4l-11.8.2s5.5,3.7,17,7.8c11.5,4.1,27.3,12.4,60.1,31.1,13.1,6.2,44.3,8.3,65.9.9,18.4-5.4,52.1-4.5,52.1-4.5,0,0,8.3-1.8,14-5,1.8-.2,3-.4,3-.4l.7-2.3c1.3-1.3,1.8-2.8,1.3-4.4l.5-.7c.2.2.5.3.7.5,1.5-1.6,3.2-2.2.7-4.9Z"/>
            <path class="st7" d="M7.5,475.6s20.2,86.2,265.5,104.8c-119.6,0-265.5.5-265.5.5v-105.3Z"/>
            <path class="st7" d="M595.5,520s0,5.9-11.7,8c-6.7,0-24.6-1.1-30-18.2-4.3-9.9-6.3-18.2-6.3-18.2,0,0-1.1,17.9,7,27.8,8.2,10,15.1,15,31.2,11.8,5.3-1.8,9.1-4.5,9.8-11.2Z"/>
          </g>
          <g>
            <path d="M31.2,601.6h7.2c4.8,0,8,.2,9.6.6,1.6.4,2.8,1.3,3.6,2.8.8,1.5.9,3.9.3,7.2-.5,3-1.3,5.1-2.2,6.1-.9,1-2.5,1.7-4.8,1.9,1.9.5,3.1,1.2,3.7,2,.5.8.8,1.6.9,2.3,0,.7-.2,2.6-.8,5.8l-1.8,10.3h-9.4l2.3-12.9c.4-2.1.4-3.4.2-3.9-.2-.5-1.1-.7-2.5-.7l-3.1,17.6h-10.1l6.9-38.9ZM40.1,608.3l-1.5,8.7c1.1,0,2-.2,2.5-.5.5-.3.9-1.3,1.2-3l.4-2.1c.2-1.2.1-2-.2-2.4-.4-.4-1.1-.6-2.3-.6Z"/>
            <path d="M107.7,601.6l-1.1,38.9h-10.3l.7-7h-3.6l-1.8,7h-10.5l12-38.9h14.6ZM97.9,626.6c.3-4.4.7-9.9,1.3-16.3-2.3,7.5-4,12.9-4.8,16.3h3.5Z"/>
            <path d="M168.3,618.6h-10.1l1.2-6.8c.3-2,.5-3.2.3-3.7-.1-.5-.6-.7-1.3-.7s-1.4.3-1.7.9c-.3.6-.7,1.9-1,3.8l-3.2,18.1c-.3,1.9-.4,3.1-.3,3.7s.6.9,1.4.9,1.3-.3,1.6-.9.7-1.9,1.1-4.1l.9-4.9h10.1l-.3,1.5c-.7,4-1.5,6.9-2.4,8.6-.9,1.7-2.4,3.2-4.6,4.4-2.2,1.3-4.7,1.9-7.5,1.9s-5.3-.5-7-1.6c-1.7-1.1-2.7-2.6-3-4.5-.3-1.9,0-4.8.6-8.6l2-11.4c.5-2.8,1-4.9,1.4-6.3.4-1.4,1.3-2.8,2.4-4.1,1.2-1.3,2.7-2.3,4.5-3.1,1.8-.7,3.8-1.1,6-1.1s5.3.6,7.1,1.7c1.7,1.2,2.8,2.6,3.1,4.3s.1,4.4-.5,8l-.7,3.7Z"/>
            <path d="M217.6,601.6l-6.9,38.9h-10.1l6.9-38.9h10.1Z"/>
            <path d="M276.7,601.6l-6.9,38.9h-8.9l-2.1-17.7-3.1,17.7h-8.5l6.9-38.9h8.5l2.6,17.5,3.1-17.5h8.5Z"/>
            <path d="M334,615.9h-10.1l.6-3.5c.4-2.2.5-3.6.4-4.2,0-.6-.5-.8-1.2-.8s-1.1.2-1.4.7c-.3.5-.6,1.7-1,3.7l-3.3,18.7c-.3,1.7-.4,2.9-.3,3.5.1.6.5.8,1.2.8s1.3-.3,1.7-.9.7-1.8,1-3.7l.8-4.6h-2l1-5.9h11.9l-3.7,20.9h-6.4l-.4-2.8c-.9,1.2-1.9,2.1-3.1,2.7-1.2.6-2.4.9-3.9.9s-3.2-.4-4.6-1.2c-1.3-.8-2.3-1.8-2.8-3.1-.6-1.2-.8-2.5-.8-3.8,0-1.3.3-3.3.8-6l2-11.6c.7-3.7,1.3-6.4,2-8.1.7-1.7,2.1-3.2,4.3-4.6,2.1-1.4,4.7-2.1,7.7-2.1s5.3.6,7.1,1.8c1.7,1.2,2.8,2.7,3.1,4.3.3,1.7.2,4.1-.4,7.3l-.3,1.7Z"/>
          </g>
        </g>
      </g>
    </g>
  </g>
</svg>