<?xml version="1.0" encoding="UTF-8"?>
<svg id="Layer_1" xmlns="http://www.w3.org/2000/svg" version="1.1" xmlns:xlink="http://www.w3.org/1999/xlink" viewBox="0 0 462.9 109.8">
  <!-- Generator: Adobe Illustrator 29.5.1, SVG Export Plug-In . SVG Version: 2.1.0 Build 141)  -->
  <defs>
    <style>
      .st0 {
        fill: url(#linear-gradient2);
      }

      .st1 {
        fill: url(#linear-gradient1);
      }

      .st2 {
        fill: url(#linear-gradient8);
      }

      .st3 {
        fill: url(#linear-gradient7);
      }

      .st4 {
        fill: url(#linear-gradient4);
      }

      .st5 {
        fill: url(#linear-gradient5);
      }

      .st6 {
        fill: url(#linear-gradient3);
      }

      .st7 {
        fill: url(#linear-gradient6);
      }

      .st8 {
        fill: url(#linear-gradient);
      }
    </style>
    <linearGradient id="linear-gradient" x1="231.4" y1="0" x2="231.4" y2="109.8" gradientUnits="userSpaceOnUse">
      <stop offset="0" stop-color="#ff7301"/>
      <stop offset="1" stop-color="#ff2c01"/>
    </linearGradient>
    <linearGradient id="linear-gradient1" x1="98.4" y1="18.9" x2="98.4" y2="93.8" xlink:href="#linear-gradient"/>
    <linearGradient id="linear-gradient2" x1="136" y1="18.9" x2="136" y2="93.7" xlink:href="#linear-gradient"/>
    <linearGradient id="linear-gradient3" x1="176.7" y1="18.9" x2="176.7" y2="93.7" xlink:href="#linear-gradient"/>
    <linearGradient id="linear-gradient4" x1="220.6" y1="18.9" x2="220.6" y2="93.7" xlink:href="#linear-gradient"/>
    <linearGradient id="linear-gradient5" x1="253.3" y1="18.9" x2="253.3" y2="93.7" xlink:href="#linear-gradient"/>
    <linearGradient id="linear-gradient6" x1="281.2" y1="18.9" x2="281.2" y2="93.7" xlink:href="#linear-gradient"/>
    <linearGradient id="linear-gradient7" x1="317.2" y1="18.9" x2="317.2" y2="93.7" xlink:href="#linear-gradient"/>
    <linearGradient id="linear-gradient8" x1="359.8" y1="18.9" x2="359.8" y2="93.7" xlink:href="#linear-gradient"/>
  </defs>
  <path class="st8" d="M443.5,109.8H0L19.4,0h443.5l-19.4,109.8ZM6,104.8h433.4l17.6-99.8H23.6L6,104.8Z"/>
  <g>
    <path class="st1" d="M85.4,18.9h19.6c5.3,0,9.3.4,12,1.2s4.6,2,5.8,3.6,1.8,3.5,1.9,5.7c.1,2.2-.2,5.7-1.1,10.4l-1.2,6.5c-.8,4.8-1.9,8.3-3.3,10.4-1.4,2.2-3.5,3.9-6.3,5-2.8,1.2-6.4,1.8-10.6,1.8h-5.2l-5.3,30.1h-19.4l13.2-74.8h0ZM102.6,31.7l-3.4,19c.6,0,1,0,1.4,0,1.8,0,3.1-.4,3.9-1.3s1.5-2.7,2-5.5l1.1-6.2c.4-2.6.3-4.2-.3-5-.7-.8-2.3-1.2-4.8-1.2h0Z"/>
    <path class="st0" d="M152.3,18.9l-13.2,74.8h-19.4l13.2-74.8s19.4,0,19.4,0Z"/>
    <path class="st6" d="M206.5,18.9l-17.1,33.8,5,41h-20.1l-2.2-32.1-5.6,32.1h-19.4l13.2-74.8h19.4l-5.1,29.1,13.8-29.1h18.2,0Z"/>
    <path class="st4" d="M245.1,18.9l-2.6,15-22.4,44.9h14.5l-2.6,15h-35.9l1.9-10.9,23.6-49h-13.2l2.6-15h34.1,0Z"/>
    <path class="st5" d="M269.6,18.9l-13.2,74.8h-19.4l13.2-74.8s19.4,0,19.4,0Z"/>
    <path class="st7" d="M296.9,18.9l-10.5,59.8h11.8l-2.6,15h-31.3l13.2-74.8s19.5,0,19.5,0Z"/>
    <path class="st3" d="M332.9,18.9l-10.5,59.8h11.8l-2.6,15h-31.3l13.2-74.8s19.5,0,19.5,0Z"/>
    <path class="st2" d="M385.4,18.9l-2.1,74.8h-19.9l1.3-13.4h-7l-3.5,13.4h-20.1l23.1-74.8h28.1ZM366.6,67c.5-8.5,1.4-19,2.6-31.4-4.5,14.3-7.6,24.8-9.3,31.4h6.7,0Z"/>
  </g>
</svg>