<?xml version="1.0" encoding="UTF-8"?>
<svg id="Layer_1" data-name="Layer 1" xmlns="http://www.w3.org/2000/svg" viewBox="0 0 462.9 109.8">
  <defs>
    <style>
      .cls-1 {
        fill: none;
        stroke: #000;
        stroke-miterlimit: 10;
        stroke-width: 5px;
      }
    </style>
  </defs>
  <polygon class="cls-1" points="459.92 2.5 21.46 2.5 2.98 107.3 441.45 107.3 459.92 2.5"/>
  <g>
    <path d="M85.37,18.94h19.59c5.3,0,9.3.42,12,1.25,2.7.83,4.63,2.03,5.79,3.6,1.16,1.57,1.79,3.47,1.9,5.71.11,2.23-.24,5.69-1.07,10.37l-1.15,6.52c-.84,4.78-1.95,8.26-3.32,10.44-1.37,2.19-3.48,3.87-6.32,5.04-2.84,1.17-6.39,1.76-10.64,1.76h-5.22l-5.31,30.13h-19.45l13.19-74.81ZM102.56,31.74l-3.36,19.04c.55.03,1.02.05,1.42.05,1.79,0,3.1-.44,3.95-1.32.85-.88,1.52-2.7,2.01-5.48l1.08-6.15c.45-2.56.34-4.22-.32-4.99-.67-.77-2.26-1.16-4.79-1.16Z"/>
    <path d="M152.32,18.94l-13.19,74.81h-19.45l13.19-74.81h19.45Z"/>
    <path d="M206.5,18.94l-17.12,33.78,4.99,41.03h-20.1l-2.22-32.07-5.65,32.07h-19.45l13.19-74.81h19.45l-5.12,29.06,13.79-29.06h18.25Z"/>
    <path d="M245.15,18.94l-2.64,14.97-22.4,44.87h14.49l-2.64,14.97h-35.86l1.92-10.86,23.61-48.98h-13.21l2.64-14.97h34.1Z"/>
    <path d="M269.64,18.94l-13.19,74.81h-19.45l13.19-74.81h19.45Z"/>
    <path d="M296.9,18.94l-10.55,59.84h11.83l-2.64,14.97h-31.28l13.19-74.81h19.45Z"/>
    <path d="M332.89,18.94l-10.55,59.84h11.83l-2.64,14.97h-31.28l13.19-74.81h19.45Z"/>
    <path d="M385.42,18.94l-2.07,74.81h-19.88l1.33-13.45h-6.96l-3.54,13.45h-20.11l23.11-74.81h28.12ZM366.63,67.04c.51-8.47,1.37-18.95,2.58-31.42-4.51,14.32-7.6,24.8-9.27,31.42h6.7Z"/>
  </g>
</svg>