<?xml version="1.0" encoding="UTF-8"?>
<svg xmlns="http://www.w3.org/2000/svg" version="1.1" viewBox="0 0 2200 2200">
  <!-- Generator: Adobe Illustrator 29.5.0, SVG Export Plug-In . SVG Version: 2.1.0 Build 137)  -->
  <defs>
    <style>
      .st0 {
        fill: #fff;
      }

      .st1 {
        fill: #121214;
      }
    </style>
  </defs>
  <g id="background">
    <rect class="st0" width="2200" height="2200"/>
  </g>
  <g id="objects">
    <g>
      <path class="st1" d="M579,1100c0,109.7-89,198.7-198.7,198.7h0c-109.7,0-198.7-89-198.7-198.7h0c0-109.7,89-198.7,198.7-198.7h0c109.7,0,198.7,89,198.7,198.7h0Z"/>
      <path class="st0" d="M380.3,967.5c-73.2,0-132.5,59.3-132.5,132.5s59.3,132.5,132.5,132.5,132.5-59.3,132.5-132.5-59.3-132.5-132.5-132.5ZM494.5,1097.4c-23-6.6-51.6-10.5-81.3-3.9-3.2-7.1-6.4-13.9-9.7-20.4,30-13,51.8-30.2,66.2-44.2,15.1,18.9,24.3,42.6,24.9,68.5ZM380.3,985.8c29.6,0,56.5,11.2,76.8,29.7-13.2,13-33.8,29.3-62.2,41.4-17.2-31.1-34.7-54.5-44.9-67,9.6-2.7,19.8-4.1,30.2-4.1ZM331.8,996.6c8,9.6,26.8,33.5,45.5,66.9-42,13.6-86.7,14.8-109.1,14.3,7.1-36,31.2-66,63.6-81.2ZM266.1,1100c0-1.3,0-2.6,0-3.9,3.1,0,6.7.1,10.6.1,26,0,68.6-2.6,109.3-16.4,3.1,6,6.1,12.3,9,18.9-57.6,19.5-88.2,58.5-100.1,77.2-18-20.2-29-46.8-29-75.9ZM380.3,1214.2c-27.1,0-52.1-9.5-71.7-25.4h0c8.7-14.6,37.1-54.5,93.7-73.3,10.8,27.1,19.4,57.4,22.8,89.5-13.8,5.9-28.9,9.2-44.8,9.2ZM442.5,1195.8c-3.9-30.6-12.1-59.2-22.2-85.1,26.6-5.1,52.6-.8,73.1,5.6-4.8,33.3-23.9,61.9-50.9,79.5Z"/>
    </g>
    <g>
      <path class="st1" d="M1539,1100c0,109.7-89,198.7-198.7,198.7h0c-109.7,0-198.7-89-198.7-198.7h0c0-109.7,89-198.7,198.7-198.7h0c109.7,0,198.7,89,198.7,198.7h0Z"/>
      <g>
        <circle class="st0" cx="1269.9" cy="1021.3" r="25.6"/>
        <rect class="st0" x="1248.6" y="1063.9" width="42.6" height="127.9" rx="1.9" ry="1.9"/>
        <path class="st0" d="M1436.3,1110.9v72.5c0,4.7-3.8,8.5-8.5,8.5h-25.6c-4.7,0-8.5-3.8-8.5-8.5v-59.7c0-11.8-9.6-21.3-21.3-21.3s-21.3,9.6-21.3,21.3v59.7c0,4.7-3.8,8.5-8.5,8.5h-25.6c-4.7,0-8.5-3.8-8.5-8.5v-110.9c0-4.7,3.8-8.5,8.5-8.5h25.6c4.7,0,8.5,3.8,8.5,8.5v5.5c8.5-11,22.6-18.3,38.4-18.3,23.5,0,46.9,17.1,46.9,51.2Z"/>
      </g>
    </g>
    <g>
      <path class="st1" d="M2019,1100c0,109.7-89,198.7-198.7,198.7h0c-109.7,0-198.7-89-198.7-198.7h0c0-109.7,89-198.7,198.7-198.7h0c109.7,0,198.7,89,198.7,198.7h0Z"/>
      <path class="st0" d="M1940.2,1171c-5.7,4-14,8-25.1,10.7-2,.4-3.7,1.9-4.2,3.9l-1.1,4.2c-1.4,4.9-5.8,8.4-10.9,8.6-48.8,2.6-42.6,20.9-78.6,20.9s-29.7-18.3-78.6-20.9c-5.1-.2-9.5-3.7-10.9-8.6l-1.1-4.2c-.6-2-2.2-3.5-4.2-3.9-11-2.7-19.3-6.7-25.1-10.7-5.5-3.8-4.7-12,1.3-14.9,46.4-22.6,45.9-46.8,45.9-46.8l-21.8-16.3c-6.7-5-8.5-14.1-4.2-21.2,3-5,8.5-7.9,14.1-7.9s2.7.2,4,.5l13.7,3.4c-1.7-5.9-2.6-12.1-2.6-18.5,0-37.9,31-68.6,69.4-68.6s69.4,30.7,69.4,68.6-.9,12.7-2.6,18.5l13.7-3.4c7-1.7,14.4,1.2,18.1,7.4,1.6,2.6,2.3,5.5,2.3,8.4,0,4.9-2.3,9.7-6.5,12.8l-21.8,16.3s-.5,24.2,45.9,46.8c6,2.9,6.8,11.1,1.3,14.9Z"/>
    </g>
    <g>
      <path class="st1" d="M1059,1100c0,109.7-89,198.7-198.7,198.7h0c-109.7,0-198.7-89-198.7-198.7h0c0-109.7,89-198.7,198.7-198.7h0c109.7,0,198.7,89,198.7,198.7h0Z"/>
      <path class="st0" d="M812.7,1222.2c3.9-3.6,20-20.3,28.5-54.9l6.4-26.3c6,6.3,14.4,10.4,23.2,12.6,35.6,8.8,70.1-29.3,79-65.8,12.6-51.2-13.5-96.3-56.8-106.9-49.8-12.2-108.6,12.1-123,70.6-5,20.6-3.4,51.7,24.5,66.5,2.9,1.5,6.4,0,7.1-3.2l3.9-15.8c.4-1.8-.3-3.7-1.7-5-9.9-9-12.2-23.7-8.9-37.5,9.7-39.6,50.4-55.8,85-47.3,30,7.4,48.3,38,39.8,72.7-6.1,24.7-23.2,52-48,45.9-14.8-3.6-16.5-18.1-12.5-34.5l9.1-37.1c2.3-9.6-3.5-19.2-13-21.6-9.6-2.3-24.7,4.4-29.5,24.2-2.9,11.6-.5,20.8,3.9,26.9l-18.2,74.4c-8.4,34.3-2,56.4-.2,61.7"/>
    </g>
    <g>
      <path class="st1" d="M579,1665.1c0,109.7-89,198.7-198.7,198.7h0c-109.7,0-198.7-89-198.7-198.7h0c0-109.7,89-198.7,198.7-198.7h0c109.7,0,198.7,89,198.7,198.7h0Z"/>
      <g>
        <path class="st0" d="M468.6,1553.9h-142.6c-2,0-4,.8-5.4,2.2l-33.9,33.9c-1.4,1.4-2.3,3.4-2.3,5.4v134.9c0,4.2,3.4,7.7,7.7,7.7h42.2v34.6c0,3.4,4.1,5,6.4,2.7l37.3-37.3h26c2,0,4-.8,5.4-2.2l64.6-64.6c1.4-1.4,2.3-3.4,2.3-5.4v-104.2c0-4.2-3.4-7.7-7.7-7.7ZM470,1661c0,3.5-1.3,6.7-3.8,9.1l-23.3,23.3c-2.5,2.5-5.7,3.8-9.1,3.8h-30.5l-24.2,24.2c-2.1,2.1-5,3.3-8,3.3-6.3,0-11.4-5.1-11.4-11.3v-16.2h-25.4c-7.1,0-13-5.8-13-13v-111.3c0-7.1,5.8-13,13-13h122.8c7.1,0,13,5.8,13,13v88Z"/>
        <path class="st0" d="M457.1,1569.2h-122.8c-2.1,0-3.8,1.7-3.8,3.8v111.3c0,2.1,1.7,3.8,3.8,3.8h34.5v25.3c0,2,2.4,3,3.8,1.6l26.9-26.9h34.2c1,0,2-.4,2.7-1.1l23.3-23.3c.7-.7,1.1-1.7,1.1-2.7v-88c0-2.1-1.7-3.8-3.8-3.8ZM391.8,1641.2c0,.5-.4.9-.9.9h-13.5c-.5,0-.9-.4-.9-.9v-44.2c0-.5.4-.9.9-.9h13.5c.5,0,.9.4.9.9v44.2ZM437.9,1641.2c0,.5-.4.9-.9.9h-13.5c-.5,0-.9-.4-.9-.9v-44.2c0-.5.4-.9.9-.9h13.5c.5,0,.9.4.9.9v44.2Z"/>
      </g>
    </g>
    <g>
      <path class="st1" d="M1539,1665.1c0,109.7-89,198.7-198.7,198.7h0c-109.7,0-198.7-89-198.7-198.7h0c0-109.7,89-198.7,198.7-198.7h0c109.7,0,198.7,89,198.7,198.7h0Z"/>
      <path class="st0" d="M1339.6,1537.8c-61.4,2-112.1,51.7-115.2,113.1-1.1,22.1,3.8,43,13.3,61.2l-13.3,59.7c-.6,2.7,1.8,5.1,4.5,4.5l59.7-13.3h0c18,9.4,38.7,14.3,60.7,13.3,61.3-2.8,111.2-53.2,113.5-114.5,2.7-69.4-53.9-126.2-123.2-124ZM1343.6,1751.7c-17.4,0-33.6-4.7-47.6-12.9-1.3-.7-2.6-1.5-3.8-2.3l-38.1,10.2,10.2-38.1c-9.6-14.8-15.2-32.5-15.2-51.4,0-52.2,42.5-94.6,94.6-94.6s94.6,42.5,94.6,94.6-42.5,94.6-94.6,94.6Z"/>
      <path class="st0" d="M1399.7,1698.7c-1.7,2.5-3.4,4.8-6.1,7.5-6.1,6.1-14.5,9.1-23,8.3-15.3-1.6-37-10-55.7-28.7-18.7-18.7-27.1-40.4-28.7-55.7-.9-8.5,2.2-17,8.3-23,2.8-2.8,5.1-4.5,7.5-6.2,4.6-3.1,10.8-1,12.5,4.2l6.3,18.8c1.7,5.2.9,8.4-1.3,10.6l-5,5c-2.5,2.5-2.9,6.3-1,9.3,2.8,4.3,8,11.3,17.5,20.8,9.6,9.6,16.5,14.8,20.8,17.5,3,1.9,6.8,1.5,9.3-1l5-5c2.2-2.2,5.4-3,10.6-1.3l18.8,6.3c5.2,1.7,7.3,8,4.1,12.5Z"/>
    </g>
    <g>
      <path class="st1" d="M2019,1665.1c0,109.7-89,198.7-198.7,198.7h0c-109.7,0-198.7-89-198.7-198.7h0c0-109.7,89-198.7,198.7-198.7h0c109.7,0,198.7,89,198.7,198.7h0Z"/>
      <path class="st0" d="M1938.2,1656.1c0-14.8-12-26.8-26.8-26.8s-13.6,2.8-18.4,7.3c-16.1-12.6-37.7-20.9-61.9-22.9l13.7-41.1,34.6,17.3c0,.6-.2,1.2-.2,1.9,0,8.9,7.2,16.1,16.1,16.1s16.1-7.2,16.1-16.1-7.2-16.1-16.1-16.1-8.3,1.7-11.1,4.5l-34.9-17.4c-2.6-1.3-5.7-1.5-8.5-.4-2.8,1.1-5,3.4-5.9,6.3l-14.8,44.5c-28.4,0-54,9-72.4,23.4-4.8-4.5-11.3-7.3-18.4-7.3-14.8,0-26.8,12-26.8,26.8s7,21,16.9,24.9c-.6,3.3-.9,6.5-.9,9.9,0,42.9,45.6,77.7,101.8,77.7s101.8-34.8,101.8-77.7-.3-6.6-.9-9.9c9.9-3.9,16.9-13.6,16.9-24.9ZM1766.7,1677.5c0-8.9,7.2-16.1,16.1-16.1s16.1,7.2,16.1,16.1-7.2,16.1-16.1,16.1-16.1-7.2-16.1-16.1ZM1862.2,1723.3c-.5.8-12.6,18.5-41.9,18.5s-41.5-17.7-41.9-18.5c-1.7-2.5-1-5.8,1.4-7.4,2.5-1.7,5.8-1,7.4,1.4.4.6,9.8,13.7,33.1,13.7s32.7-13.2,33.1-13.7c1.7-2.4,5-3.1,7.4-1.4,2.4,1.6,3.1,4.9,1.4,7.3ZM1857.8,1693.6c-8.9,0-16.1-7.2-16.1-16.1s7.2-16.1,16.1-16.1,16.1,7.2,16.1,16.1-7.2,16.1-16.1,16.1Z"/>
    </g>
    <g>
      <path class="st1" d="M1059,1665.1c0,109.7-89,198.7-198.7,198.7h0c-109.7,0-198.7-89-198.7-198.7h0c0-109.7,89-198.7,198.7-198.7h0c109.7,0,198.7,89,198.7,198.7h0Z"/>
      <path class="st0" d="M899.7,1716.3v-98.4s11.1,18.5,51.2,19.6c2.1,0,3.9-1.7,3.9-3.8v-27.8c0-2.1-1.7-3.7-3.7-3.8-31.1-1.8-45.9-25.6-47.4-47.5-.1-2-1.9-3.6-3.9-3.6h-31.7c-2.1,0-3.8,1.7-3.8,3.8v156.5c0,17-13,31.8-30,32.6-19.4.9-35.2-15.7-32.8-35.4,1.7-13.9,12.9-25.3,26.7-27.2,2.8-.4,5.5-.4,8.1-.1s4.3-1.5,4.3-3.8v-27.9c0-2-1.5-3.7-3.5-3.8-4-.3-8.1-.2-12.2.3-30.6,3.5-55.3,28.2-58.7,58.9-4.5,40.4,27,74.6,66.5,74.6s66.9-30,66.9-66.9"/>
    </g>
    <g>
      <path class="st1" d="M579,534.9c0,109.7-89,198.7-198.7,198.7h0c-109.7,0-198.7-89-198.7-198.7h0c0-109.7,89-198.7,198.7-198.7h0c109.7,0,198.7,89,198.7,198.7h0Z"/>
      <path class="st0" d="M439.2,519.5l-3.3,26.6c-.6,4.4-4.3,7.8-8.8,7.8h-43v111.1c-4.5.4-9.1.6-13.8.6-10.4,0-20.6-1-30.4-3v-108.7h-33.1c-3,0-5.5-2.5-5.5-5.5v-33.3c0-3,2.5-5.5,5.5-5.5h33.1v-49.9c0-30.6,24.7-55.4,55.2-55.4h38.6c3,0,5.5,2.5,5.5,5.5v33.3c0,3-2.5,5.5-5.5,5.5h-27.6c-12.2,0-22.1,9.9-22.1,22.2v38.8h46.4c5.3,0,9.4,4.7,8.8,10Z"/>
    </g>
    <g>
      <path class="st1" d="M1539,534.9c0,109.7-89,198.7-198.7,198.7h0c-109.7,0-198.7-89-198.7-198.7h0c0-109.7,89-198.7,198.7-198.7h0c109.7,0,198.7,89,198.7,198.7h0Z"/>
      <path class="st0" d="M1394.2,430.7h-107.8c-27.8,0-50.3,22.5-50.3,50.3v107.8c0,27.8,22.5,50.3,50.3,50.3h107.8c27.8,0,50.3-22.5,50.3-50.3v-107.8c0-27.8-22.5-50.3-50.3-50.3ZM1426.6,585.2c0,19.8-16.1,35.9-35.9,35.9h-100.6c-19.8,0-35.9-16.1-35.9-35.9v-100.6c0-19.8,16.1-35.9,35.9-35.9h100.6c19.8,0,35.9,16.1,35.9,35.9v100.6Z"/>
      <path class="st0" d="M1340.4,481c-29.8,0-53.9,24.1-53.9,53.9s24.1,53.9,53.9,53.9,53.9-24.1,53.9-53.9-24.1-53.9-53.9-53.9ZM1340.4,570.8c-19.8,0-35.9-16.1-35.9-35.9s16.1-35.9,35.9-35.9,35.9,16.1,35.9,35.9-16.1,35.9-35.9,35.9Z"/>
      <path class="st0" d="M1397.9,488.1c-5.9,0-10.8-4.8-10.8-10.8s4.8-10.8,10.8-10.8,10.8,4.8,10.8,10.8-4.8,10.8-10.8,10.8Z"/>
    </g>
    <g>
      <path class="st1" d="M2019,534.9c0,109.7-89,198.7-198.7,198.7h0c-109.7,0-198.7-89-198.7-198.7h0c0-109.7,89-198.7,198.7-198.7h0c109.7,0,198.7,89,198.7,198.7h0Z"/>
      <path class="st0" d="M1905.9,450.7h-171.2c-16.9,0-30.6,13.7-30.6,30.6v107.1c0,16.9,13.7,30.6,30.6,30.6h171.2c16.9,0,30.6-13.7,30.6-30.6v-107.1c0-16.9-13.7-30.6-30.6-30.6ZM1847.8,542.3l-47.6,23.8c-5.5,2.8-12-1.2-12-7.4v-47.6c0-6.1,6.5-10.1,12-7.4l47.6,23.8c6.1,3,6.1,11.7,0,14.8Z"/>
    </g>
    <g>
      <path class="st1" d="M1059,534.9c0,109.7-89,198.7-198.7,198.7h0c-109.7,0-198.7-89-198.7-198.7h0c0-109.7,89-198.7,198.7-198.7h0c109.7,0,198.7,89,198.7,198.7h0Z"/>
      <path class="st0" d="M889,516.6l80.4-86h-30.5l-63.1,67.5-48.3-67.5h-83.5l84.5,118-84.5,90.4h30.5l67.2-71.9,51.5,71.9h83.5l-87.7-122.5ZM787,452.8h29.1l117.6,164.2h-29.1l-117.6-164.2Z"/>
    </g>
  </g>
</svg>