<svg width="559" height="23" viewBox="0 0 559 23" fill="none" xmlns="http://www.w3.org/2000/svg">
<g clip-path="url(#clip0_95_1255)">
<path d="M7.41 22.6571H0L3.93 0H11.34L7.41 22.6571Z" fill="url(#paint0_linear_95_1255)"/>
<path d="M21.75 22.6571H14.34L18.27 0H25.68L21.75 22.6571Z" fill="url(#paint1_linear_95_1255)"/>
<path d="M36.09 22.6571H28.68L32.61 0H40.02L36.09 22.6571Z" fill="url(#paint2_linear_95_1255)"/>
<path d="M50.43 22.6571H43.02L46.95 0H54.36L50.43 22.6571Z" fill="url(#paint3_linear_95_1255)"/>
<path d="M64.77 22.6571H57.36L61.29 0H68.7L64.77 22.6571Z" fill="url(#paint4_linear_95_1255)"/>
<path d="M79.11 22.6571H71.7L75.63 0H83.04L79.11 22.6571Z" fill="url(#paint5_linear_95_1255)"/>
<path d="M93.45 22.6571H86.04L89.97 0H97.38L93.45 22.6571Z" fill="url(#paint6_linear_95_1255)"/>
<path d="M107.79 22.6571H100.38L104.31 0H111.72L107.79 22.6571Z" fill="url(#paint7_linear_95_1255)"/>
<path d="M122.13 22.6571H114.72L118.65 0H126.06L122.13 22.6571Z" fill="url(#paint8_linear_95_1255)"/>
<path d="M136.47 22.6571H129.06L132.99 0H140.4L136.47 22.6571Z" fill="url(#paint9_linear_95_1255)"/>
<path d="M150.81 22.6571H143.4L147.33 0H154.74L150.81 22.6571Z" fill="url(#paint10_linear_95_1255)"/>
<path d="M165.15 22.6571H157.74L161.67 0H169.08L165.15 22.6571Z" fill="url(#paint11_linear_95_1255)"/>
<path d="M179.49 22.6571H172.08L176.01 0H183.42L179.49 22.6571Z" fill="url(#paint12_linear_95_1255)"/>
<path d="M193.83 22.6571H186.42L190.35 0H197.76L193.83 22.6571Z" fill="url(#paint13_linear_95_1255)"/>
<path d="M208.17 22.6571H200.76L204.69 0H212.1L208.17 22.6571Z" fill="url(#paint14_linear_95_1255)"/>
<path d="M222.51 22.6571H215.1L219.03 0H226.44L222.51 22.6571Z" fill="url(#paint15_linear_95_1255)"/>
<path d="M236.85 22.6571H229.44L233.37 0H240.78L236.85 22.6571Z" fill="url(#paint16_linear_95_1255)"/>
<path d="M251.19 22.6571H243.78L247.71 0H255.12L251.19 22.6571Z" fill="url(#paint17_linear_95_1255)"/>
<path d="M265.53 22.6571H258.12L262.05 0H269.46L265.53 22.6571Z" fill="url(#paint18_linear_95_1255)"/>
<path d="M279.87 22.6571H272.46L276.39 0H283.8L279.87 22.6571Z" fill="url(#paint19_linear_95_1255)"/>
<path d="M294.21 22.6571H286.8L290.73 0H298.14L294.21 22.6571Z" fill="url(#paint20_linear_95_1255)"/>
<path d="M308.55 22.6571H301.14L305.07 0H312.48L308.55 22.6571Z" fill="url(#paint21_linear_95_1255)"/>
<path d="M322.89 22.6571H315.48L319.41 0H326.82L322.89 22.6571Z" fill="url(#paint22_linear_95_1255)"/>
<path d="M337.23 22.6571H329.82L333.75 0H341.16L337.23 22.6571Z" fill="url(#paint23_linear_95_1255)"/>
<path d="M351.57 22.6571H344.16L348.09 0H355.5L351.57 22.6571Z" fill="url(#paint24_linear_95_1255)"/>
<path d="M365.91 22.6571H358.5L362.43 0H369.84L365.91 22.6571Z" fill="url(#paint25_linear_95_1255)"/>
<path d="M380.25 22.6571H372.84L376.77 0H384.18L380.25 22.6571Z" fill="url(#paint26_linear_95_1255)"/>
<path d="M394.59 22.6571H387.18L391.11 0H398.52L394.59 22.6571Z" fill="url(#paint27_linear_95_1255)"/>
<path d="M408.93 22.6571H401.52L405.45 0H412.86L408.93 22.6571Z" fill="url(#paint28_linear_95_1255)"/>
<path d="M423.27 22.6571H415.86L419.79 0H427.2L423.27 22.6571Z" fill="url(#paint29_linear_95_1255)"/>
<path d="M437.61 22.6571H430.2L434.13 0H441.54L437.61 22.6571Z" fill="url(#paint30_linear_95_1255)"/>
<path d="M451.95 22.6571H444.54L448.47 0H455.88L451.95 22.6571Z" fill="url(#paint31_linear_95_1255)"/>
<path d="M466.29 22.6571H458.88L462.81 0H470.22L466.29 22.6571Z" fill="url(#paint32_linear_95_1255)"/>
<path d="M480.63 22.6571H473.22L477.15 0H484.56L480.63 22.6571Z" fill="url(#paint33_linear_95_1255)"/>
<path d="M494.97 22.6571H487.56L491.49 0H498.9L494.97 22.6571Z" fill="url(#paint34_linear_95_1255)"/>
<path d="M509.31 22.6571H501.9L505.83 0H513.24L509.31 22.6571Z" fill="url(#paint35_linear_95_1255)"/>
<path d="M523.65 22.6571H516.24L520.17 0H527.58L523.65 22.6571Z" fill="url(#paint36_linear_95_1255)"/>
<path d="M537.99 22.6571H530.58L534.51 0H541.92L537.99 22.6571Z" fill="url(#paint37_linear_95_1255)"/>
<path d="M552.33 22.6571H544.92L548.85 0H556.26L552.33 22.6571Z" fill="url(#paint38_linear_95_1255)"/>
</g>
<defs>
<linearGradient id="paint0_linear_95_1255" x1="5.67" y1="0" x2="5.67" y2="22.6571" gradientUnits="userSpaceOnUse">
<stop stop-color="#FF7301"/>
<stop offset="1" stop-color="#FF2C01"/>
</linearGradient>
<linearGradient id="paint1_linear_95_1255" x1="20.01" y1="0" x2="20.01" y2="22.6571" gradientUnits="userSpaceOnUse">
<stop stop-color="#FF7301"/>
<stop offset="1" stop-color="#FF2C01"/>
</linearGradient>
<linearGradient id="paint2_linear_95_1255" x1="34.35" y1="0" x2="34.35" y2="22.6571" gradientUnits="userSpaceOnUse">
<stop stop-color="#FF7301"/>
<stop offset="1" stop-color="#FF2C01"/>
</linearGradient>
<linearGradient id="paint3_linear_95_1255" x1="48.69" y1="0" x2="48.69" y2="22.6571" gradientUnits="userSpaceOnUse">
<stop stop-color="#FF7301"/>
<stop offset="1" stop-color="#FF2C01"/>
</linearGradient>
<linearGradient id="paint4_linear_95_1255" x1="63.03" y1="0" x2="63.03" y2="22.6571" gradientUnits="userSpaceOnUse">
<stop stop-color="#FF7301"/>
<stop offset="1" stop-color="#FF2C01"/>
</linearGradient>
<linearGradient id="paint5_linear_95_1255" x1="77.37" y1="0" x2="77.37" y2="22.6571" gradientUnits="userSpaceOnUse">
<stop stop-color="#FF7301"/>
<stop offset="1" stop-color="#FF2C01"/>
</linearGradient>
<linearGradient id="paint6_linear_95_1255" x1="91.71" y1="0" x2="91.71" y2="22.6571" gradientUnits="userSpaceOnUse">
<stop stop-color="#FF7301"/>
<stop offset="1" stop-color="#FF2C01"/>
</linearGradient>
<linearGradient id="paint7_linear_95_1255" x1="106.05" y1="0" x2="106.05" y2="22.6571" gradientUnits="userSpaceOnUse">
<stop stop-color="#FF7301"/>
<stop offset="1" stop-color="#FF2C01"/>
</linearGradient>
<linearGradient id="paint8_linear_95_1255" x1="120.39" y1="0" x2="120.39" y2="22.6571" gradientUnits="userSpaceOnUse">
<stop stop-color="#FF7301"/>
<stop offset="1" stop-color="#FF2C01"/>
</linearGradient>
<linearGradient id="paint9_linear_95_1255" x1="134.73" y1="0" x2="134.73" y2="22.6571" gradientUnits="userSpaceOnUse">
<stop stop-color="#FF7301"/>
<stop offset="1" stop-color="#FF2C01"/>
</linearGradient>
<linearGradient id="paint10_linear_95_1255" x1="149.07" y1="0" x2="149.07" y2="22.6571" gradientUnits="userSpaceOnUse">
<stop stop-color="#FF7301"/>
<stop offset="1" stop-color="#FF2C01"/>
</linearGradient>
<linearGradient id="paint11_linear_95_1255" x1="163.41" y1="0" x2="163.41" y2="22.6571" gradientUnits="userSpaceOnUse">
<stop stop-color="#FF7301"/>
<stop offset="1" stop-color="#FF2C01"/>
</linearGradient>
<linearGradient id="paint12_linear_95_1255" x1="177.75" y1="0" x2="177.75" y2="22.6571" gradientUnits="userSpaceOnUse">
<stop stop-color="#FF7301"/>
<stop offset="1" stop-color="#FF2C01"/>
</linearGradient>
<linearGradient id="paint13_linear_95_1255" x1="192.09" y1="0" x2="192.09" y2="22.6571" gradientUnits="userSpaceOnUse">
<stop stop-color="#FF7301"/>
<stop offset="1" stop-color="#FF2C01"/>
</linearGradient>
<linearGradient id="paint14_linear_95_1255" x1="206.43" y1="0" x2="206.43" y2="22.6571" gradientUnits="userSpaceOnUse">
<stop stop-color="#FF7301"/>
<stop offset="1" stop-color="#FF2C01"/>
</linearGradient>
<linearGradient id="paint15_linear_95_1255" x1="220.77" y1="0" x2="220.77" y2="22.6571" gradientUnits="userSpaceOnUse">
<stop stop-color="#FF7301"/>
<stop offset="1" stop-color="#FF2C01"/>
</linearGradient>
<linearGradient id="paint16_linear_95_1255" x1="235.11" y1="0" x2="235.11" y2="22.6571" gradientUnits="userSpaceOnUse">
<stop stop-color="#FF7301"/>
<stop offset="1" stop-color="#FF2C01"/>
</linearGradient>
<linearGradient id="paint17_linear_95_1255" x1="249.45" y1="0" x2="249.45" y2="22.6571" gradientUnits="userSpaceOnUse">
<stop stop-color="#FF7301"/>
<stop offset="1" stop-color="#FF2C01"/>
</linearGradient>
<linearGradient id="paint18_linear_95_1255" x1="263.79" y1="0" x2="263.79" y2="22.6571" gradientUnits="userSpaceOnUse">
<stop stop-color="#FF7301"/>
<stop offset="1" stop-color="#FF2C01"/>
</linearGradient>
<linearGradient id="paint19_linear_95_1255" x1="278.13" y1="0" x2="278.13" y2="22.6571" gradientUnits="userSpaceOnUse">
<stop stop-color="#FF7301"/>
<stop offset="1" stop-color="#FF2C01"/>
</linearGradient>
<linearGradient id="paint20_linear_95_1255" x1="292.47" y1="0" x2="292.47" y2="22.6571" gradientUnits="userSpaceOnUse">
<stop stop-color="#FF7301"/>
<stop offset="1" stop-color="#FF2C01"/>
</linearGradient>
<linearGradient id="paint21_linear_95_1255" x1="306.81" y1="0" x2="306.81" y2="22.6571" gradientUnits="userSpaceOnUse">
<stop stop-color="#FF7301"/>
<stop offset="1" stop-color="#FF2C01"/>
</linearGradient>
<linearGradient id="paint22_linear_95_1255" x1="321.15" y1="0" x2="321.15" y2="22.6571" gradientUnits="userSpaceOnUse">
<stop stop-color="#FF7301"/>
<stop offset="1" stop-color="#FF2C01"/>
</linearGradient>
<linearGradient id="paint23_linear_95_1255" x1="335.49" y1="0" x2="335.49" y2="22.6571" gradientUnits="userSpaceOnUse">
<stop stop-color="#FF7301"/>
<stop offset="1" stop-color="#FF2C01"/>
</linearGradient>
<linearGradient id="paint24_linear_95_1255" x1="349.83" y1="0" x2="349.83" y2="22.6571" gradientUnits="userSpaceOnUse">
<stop stop-color="#FF7301"/>
<stop offset="1" stop-color="#FF2C01"/>
</linearGradient>
<linearGradient id="paint25_linear_95_1255" x1="364.17" y1="0" x2="364.17" y2="22.6571" gradientUnits="userSpaceOnUse">
<stop stop-color="#FF7301"/>
<stop offset="1" stop-color="#FF2C01"/>
</linearGradient>
<linearGradient id="paint26_linear_95_1255" x1="378.51" y1="0" x2="378.51" y2="22.6571" gradientUnits="userSpaceOnUse">
<stop stop-color="#FF7301"/>
<stop offset="1" stop-color="#FF2C01"/>
</linearGradient>
<linearGradient id="paint27_linear_95_1255" x1="392.85" y1="0" x2="392.85" y2="22.6571" gradientUnits="userSpaceOnUse">
<stop stop-color="#FF7301"/>
<stop offset="1" stop-color="#FF2C01"/>
</linearGradient>
<linearGradient id="paint28_linear_95_1255" x1="407.19" y1="0" x2="407.19" y2="22.6571" gradientUnits="userSpaceOnUse">
<stop stop-color="#FF7301"/>
<stop offset="1" stop-color="#FF2C01"/>
</linearGradient>
<linearGradient id="paint29_linear_95_1255" x1="421.53" y1="0" x2="421.53" y2="22.6571" gradientUnits="userSpaceOnUse">
<stop stop-color="#FF7301"/>
<stop offset="1" stop-color="#FF2C01"/>
</linearGradient>
<linearGradient id="paint30_linear_95_1255" x1="435.87" y1="0" x2="435.87" y2="22.6571" gradientUnits="userSpaceOnUse">
<stop stop-color="#FF7301"/>
<stop offset="1" stop-color="#FF2C01"/>
</linearGradient>
<linearGradient id="paint31_linear_95_1255" x1="450.21" y1="0" x2="450.21" y2="22.6571" gradientUnits="userSpaceOnUse">
<stop stop-color="#FF7301"/>
<stop offset="1" stop-color="#FF2C01"/>
</linearGradient>
<linearGradient id="paint32_linear_95_1255" x1="464.55" y1="0" x2="464.55" y2="22.6571" gradientUnits="userSpaceOnUse">
<stop stop-color="#FF7301"/>
<stop offset="1" stop-color="#FF2C01"/>
</linearGradient>
<linearGradient id="paint33_linear_95_1255" x1="478.89" y1="0" x2="478.89" y2="22.6571" gradientUnits="userSpaceOnUse">
<stop stop-color="#FF7301"/>
<stop offset="1" stop-color="#FF2C01"/>
</linearGradient>
<linearGradient id="paint34_linear_95_1255" x1="493.23" y1="0" x2="493.23" y2="22.6571" gradientUnits="userSpaceOnUse">
<stop stop-color="#FF7301"/>
<stop offset="1" stop-color="#FF2C01"/>
</linearGradient>
<linearGradient id="paint35_linear_95_1255" x1="507.57" y1="0" x2="507.57" y2="22.6571" gradientUnits="userSpaceOnUse">
<stop stop-color="#FF7301"/>
<stop offset="1" stop-color="#FF2C01"/>
</linearGradient>
<linearGradient id="paint36_linear_95_1255" x1="521.91" y1="0" x2="521.91" y2="22.6571" gradientUnits="userSpaceOnUse">
<stop stop-color="#FF7301"/>
<stop offset="1" stop-color="#FF2C01"/>
</linearGradient>
<linearGradient id="paint37_linear_95_1255" x1="536.25" y1="0" x2="536.25" y2="22.6571" gradientUnits="userSpaceOnUse">
<stop stop-color="#FF7301"/>
<stop offset="1" stop-color="#FF2C01"/>
</linearGradient>
<linearGradient id="paint38_linear_95_1255" x1="550.59" y1="0" x2="550.59" y2="22.6571" gradientUnits="userSpaceOnUse">
<stop stop-color="#FF7301"/>
<stop offset="1" stop-color="#FF2C01"/>
</linearGradient>
<clipPath id="clip0_95_1255">
<rect width="559" height="22.6571" fill="white"/>
</clipPath>
</defs>
</svg>
