<svg width="137" height="10" viewBox="0 0 137 10" fill="none" xmlns="http://www.w3.org/2000/svg">
<g clip-path="url(#clip0_37_865)">
<path d="M55.8799 0.402832H40.1819V9.59746H42.3617V6.8878H53.511C55.1681 6.8878 55.7853 8.2105 55.8799 9.59746H58.0207C57.8873 8.31225 57.6148 6.98955 56.2969 6.39514C57.2144 6.15952 58.0207 5.62937 58.0207 4.63333V2.24497C58.0263 1.11505 56.9976 0.402832 55.8799 0.402832ZM55.8799 4.34415C55.8799 4.69223 55.7742 5.04567 55.3405 5.04567H42.3617V2.24497H55.0179C55.6519 2.24497 55.8799 2.50201 55.8799 3.10178V4.34951V4.34415Z" fill="black"/>
<path d="M75.0979 4.07105H63.259C62.7085 4.07105 62.4361 3.68013 62.4361 3.17675C62.4361 2.6466 62.6807 2.24497 63.259 2.24497H77.7726V0.402832H63.259C61.3183 0.402832 60.2952 1.42565 60.2952 3.25708C60.2952 4.72436 61.2127 5.90247 62.7975 5.90247H75.0923C75.6984 5.90247 75.8041 6.42191 75.8041 6.91458C75.8041 7.34298 75.5872 7.75532 75.0923 7.75532H60.5899V9.59746H75.4704C77.1943 9.59746 78.084 8.46755 78.084 6.87709C78.084 4.9707 77.033 4.0764 75.0923 4.0764L75.0979 4.07105Z" fill="black"/>
<path d="M15.6312 0.402832H0V9.59746H2.17981V6.8878H15.0418C16.7768 6.8878 17.7777 5.7204 17.7777 4.11389V3.04823C17.7777 1.77908 17.1271 0.402832 15.6312 0.402832ZM15.6312 4.25312C15.6312 4.83682 15.1586 5.04567 14.6192 5.04567H2.17981V2.24497H14.6192C15.2531 2.24497 15.6312 2.60912 15.6312 3.21959V4.25847V4.25312Z" fill="black"/>
<path d="M35.2941 0.402832H22.5433C21.0753 0.402832 20.0132 1.27035 20.0132 2.72693V7.27872C20.0132 8.72994 21.0753 9.59746 22.5433 9.59746H35.2941C36.7621 9.59746 37.8242 8.72994 37.8242 7.27872V2.72693C37.8242 1.27571 36.7621 0.402832 35.2941 0.402832ZM35.7501 6.73251C35.7501 7.47151 35.1996 7.75532 34.5267 7.75532H23.4553C22.7824 7.75532 22.2152 7.47151 22.2152 6.73251V3.27314C22.2152 2.53414 22.7658 2.25033 23.4553 2.25033H34.5267C35.2163 2.25033 35.7501 2.53414 35.7501 3.27314V6.73251Z" fill="black"/>
<path d="M137 2.24497V0.402832H119.089V9.59746H137V7.75532H121.269V5.84892H137V4.02285H121.269V2.24497H137Z" fill="black"/>
<path d="M80.375 3.10178V7.0431C80.375 8.55858 81.4371 9.59746 82.9997 9.59746H97.3297V7.75532H82.9997C82.7161 7.75532 82.5437 7.57325 82.5437 7.30014V2.82867C82.5437 2.55556 82.666 2.24497 82.9997 2.24497H97.3297V0.402832H82.9997C81.1424 0.402832 80.375 1.36139 80.375 3.10178Z" fill="black"/>
<path d="M114.54 3.98001H101.867V0.402832H99.6707V9.59746H101.867V5.82215H114.54V9.59746H116.787V0.402832H114.54V3.98001Z" fill="black"/>
</g>
<defs>
<clipPath id="clip0_37_865">
<rect width="137" height="9.19463" fill="white" transform="translate(0 0.402832)"/>
</clipPath>
</defs>
</svg>
