<?xml version="1.0" encoding="UTF-8"?>
<svg id="Layer_1" data-name="Layer 1" xmlns="http://www.w3.org/2000/svg" xmlns:xlink="http://www.w3.org/1999/xlink" viewBox="0 0 801.26 22.29">
  <defs>
    <style>
      .cls-1 {
        fill: url(#linear-gradient-15);
      }

      .cls-2 {
        fill: url(#linear-gradient-13);
      }

      .cls-3 {
        fill: url(#linear-gradient-28);
      }

      .cls-4 {
        fill: url(#linear-gradient-53);
      }

      .cls-5 {
        fill: url(#linear-gradient-42);
      }

      .cls-6 {
        fill: url(#linear-gradient-46);
      }

      .cls-7 {
        fill: url(#linear-gradient-2);
      }

      .cls-8 {
        fill: url(#linear-gradient-43);
      }

      .cls-9 {
        fill: url(#linear-gradient-25);
      }

      .cls-10 {
        fill: url(#linear-gradient-10);
      }

      .cls-11 {
        fill: url(#linear-gradient-12);
      }

      .cls-12 {
        fill: url(#linear-gradient-40);
      }

      .cls-13 {
        fill: url(#linear-gradient-27);
      }

      .cls-14 {
        fill: url(#linear-gradient-37);
      }

      .cls-15 {
        fill: url(#linear-gradient-39);
      }

      .cls-16 {
        fill: url(#linear-gradient-52);
      }

      .cls-17 {
        fill: url(#linear-gradient-47);
      }

      .cls-18 {
        fill: url(#linear-gradient-26);
      }

      .cls-19 {
        fill: url(#linear-gradient-4);
      }

      .cls-20 {
        fill: url(#linear-gradient-35);
      }

      .cls-21 {
        fill: url(#linear-gradient-30);
      }

      .cls-22 {
        fill: url(#linear-gradient-44);
      }

      .cls-23 {
        fill: url(#linear-gradient-49);
      }

      .cls-24 {
        fill: url(#linear-gradient-3);
      }

      .cls-25 {
        fill: url(#linear-gradient-34);
      }

      .cls-26 {
        fill: url(#linear-gradient-5);
      }

      .cls-27 {
        fill: url(#linear-gradient-38);
      }

      .cls-28 {
        fill: url(#linear-gradient-22);
      }

      .cls-29 {
        fill: url(#linear-gradient-24);
      }

      .cls-30 {
        fill: url(#linear-gradient-54);
      }

      .cls-31 {
        fill: url(#linear-gradient-33);
      }

      .cls-32 {
        fill: url(#linear-gradient-51);
      }

      .cls-33 {
        fill: url(#linear-gradient-8);
      }

      .cls-34 {
        fill: url(#linear-gradient-14);
      }

      .cls-35 {
        fill: url(#linear-gradient-29);
      }

      .cls-36 {
        fill: url(#linear-gradient-20);
      }

      .cls-37 {
        fill: url(#linear-gradient-17);
      }

      .cls-38 {
        fill: url(#linear-gradient-50);
      }

      .cls-39 {
        fill: url(#linear-gradient-7);
      }

      .cls-40 {
        fill: url(#linear-gradient-9);
      }

      .cls-41 {
        fill: url(#linear-gradient-11);
      }

      .cls-42 {
        fill: url(#linear-gradient-19);
      }

      .cls-43 {
        fill: url(#linear-gradient-6);
      }

      .cls-44 {
        fill: url(#linear-gradient-36);
      }

      .cls-45 {
        fill: url(#linear-gradient-21);
      }

      .cls-46 {
        fill: url(#linear-gradient-45);
      }

      .cls-47 {
        fill: url(#linear-gradient-48);
      }

      .cls-48 {
        fill: url(#linear-gradient-32);
      }

      .cls-49 {
        fill: url(#linear-gradient-41);
      }

      .cls-50 {
        fill: url(#linear-gradient-16);
      }

      .cls-51 {
        fill: url(#linear-gradient);
      }

      .cls-52 {
        fill: url(#linear-gradient-23);
      }

      .cls-53 {
        fill: url(#linear-gradient-31);
      }

      .cls-54 {
        fill: url(#linear-gradient-18);
      }
    </style>
    <linearGradient id="linear-gradient" x1="5.67" y1="-3.28" x2="5.67" y2="24.23" gradientUnits="userSpaceOnUse">
      <stop offset=".02" stop-color="#f70"/>
      <stop offset=".39" stop-color="#ff1e00"/>
      <stop offset=".79" stop-color="#ffbe00"/>
    </linearGradient>
    <linearGradient id="linear-gradient-2" x1="20.58" y1="-3.28" x2="20.58" y2="24.23" xlink:href="#linear-gradient"/>
    <linearGradient id="linear-gradient-3" x1="35.5" y1="-3.28" x2="35.5" y2="24.23" xlink:href="#linear-gradient"/>
    <linearGradient id="linear-gradient-4" x1="50.41" y1="-3.28" x2="50.41" y2="24.23" xlink:href="#linear-gradient"/>
    <linearGradient id="linear-gradient-5" x1="65.33" y1="-3.28" x2="65.33" y2="24.23" xlink:href="#linear-gradient"/>
    <linearGradient id="linear-gradient-6" x1="80.24" y1="-3.28" x2="80.24" y2="24.23" xlink:href="#linear-gradient"/>
    <linearGradient id="linear-gradient-7" x1="95.15" y1="-3.28" x2="95.15" y2="24.23" xlink:href="#linear-gradient"/>
    <linearGradient id="linear-gradient-8" x1="110.07" y1="-3.28" x2="110.07" y2="24.23" xlink:href="#linear-gradient"/>
    <linearGradient id="linear-gradient-9" x1="124.98" y1="-3.28" x2="124.98" y2="24.23" xlink:href="#linear-gradient"/>
    <linearGradient id="linear-gradient-10" x1="139.8" y1="-3.28" x2="139.8" y2="24.23" xlink:href="#linear-gradient"/>
    <linearGradient id="linear-gradient-11" x1="154.71" y1="-3.28" x2="154.71" y2="24.23" xlink:href="#linear-gradient"/>
    <linearGradient id="linear-gradient-12" x1="169.63" y1="-3.28" x2="169.63" y2="24.23" xlink:href="#linear-gradient"/>
    <linearGradient id="linear-gradient-13" x1="184.54" y1="-3.28" x2="184.54" y2="24.23" xlink:href="#linear-gradient"/>
    <linearGradient id="linear-gradient-14" x1="199.45" y1="-3.28" x2="199.45" y2="24.23" xlink:href="#linear-gradient"/>
    <linearGradient id="linear-gradient-15" x1="214.37" y1="-3.28" x2="214.37" y2="24.23" xlink:href="#linear-gradient"/>
    <linearGradient id="linear-gradient-16" x1="229.28" y1="-3.28" x2="229.28" y2="24.23" xlink:href="#linear-gradient"/>
    <linearGradient id="linear-gradient-17" x1="244.2" y1="-3.28" x2="244.2" y2="24.23" xlink:href="#linear-gradient"/>
    <linearGradient id="linear-gradient-18" x1="259.11" y1="-3.28" x2="259.11" y2="24.23" xlink:href="#linear-gradient"/>
    <linearGradient id="linear-gradient-19" x1="273.9" y1="-3.28" x2="273.9" y2="24.23" xlink:href="#linear-gradient"/>
    <linearGradient id="linear-gradient-20" x1="288.81" y1="-3.28" x2="288.81" y2="24.23" xlink:href="#linear-gradient"/>
    <linearGradient id="linear-gradient-21" x1="303.72" y1="-3.28" x2="303.72" y2="24.23" xlink:href="#linear-gradient"/>
    <linearGradient id="linear-gradient-22" x1="318.64" y1="-3.28" x2="318.64" y2="24.23" xlink:href="#linear-gradient"/>
    <linearGradient id="linear-gradient-23" x1="333.55" y1="-3.28" x2="333.55" y2="24.23" xlink:href="#linear-gradient"/>
    <linearGradient id="linear-gradient-24" x1="348.46" y1="-3.28" x2="348.46" y2="24.23" xlink:href="#linear-gradient"/>
    <linearGradient id="linear-gradient-25" x1="363.38" y1="-3.28" x2="363.38" y2="24.23" xlink:href="#linear-gradient"/>
    <linearGradient id="linear-gradient-26" x1="378.29" y1="-3.28" x2="378.29" y2="24.23" xlink:href="#linear-gradient"/>
    <linearGradient id="linear-gradient-27" x1="393.21" y1="-3.28" x2="393.21" y2="24.23" xlink:href="#linear-gradient"/>
    <linearGradient id="linear-gradient-28" x1="408.03" y1="-3.28" x2="408.03" y2="24.23" xlink:href="#linear-gradient"/>
    <linearGradient id="linear-gradient-29" x1="422.94" y1="-3.28" x2="422.94" y2="24.23" xlink:href="#linear-gradient"/>
    <linearGradient id="linear-gradient-30" x1="437.85" y1="-3.28" x2="437.85" y2="24.23" xlink:href="#linear-gradient"/>
    <linearGradient id="linear-gradient-31" x1="452.77" y1="-3.28" x2="452.77" y2="24.23" xlink:href="#linear-gradient"/>
    <linearGradient id="linear-gradient-32" x1="467.68" y1="-3.28" x2="467.68" y2="24.23" xlink:href="#linear-gradient"/>
    <linearGradient id="linear-gradient-33" x1="482.59" y1="-3.28" x2="482.59" y2="24.23" xlink:href="#linear-gradient"/>
    <linearGradient id="linear-gradient-34" x1="497.51" y1="-3.28" x2="497.51" y2="24.23" xlink:href="#linear-gradient"/>
    <linearGradient id="linear-gradient-35" x1="512.42" y1="-3.28" x2="512.42" y2="24.23" xlink:href="#linear-gradient"/>
    <linearGradient id="linear-gradient-36" x1="527.33" y1="-3.28" x2="527.33" y2="24.23" xlink:href="#linear-gradient"/>
    <linearGradient id="linear-gradient-37" x1="542.15" y1="-3.28" x2="542.15" y2="24.23" xlink:href="#linear-gradient"/>
    <linearGradient id="linear-gradient-38" x1="557.07" y1="-3.28" x2="557.07" y2="24.23" xlink:href="#linear-gradient"/>
    <linearGradient id="linear-gradient-39" x1="571.98" y1="-3.28" x2="571.98" y2="24.23" xlink:href="#linear-gradient"/>
    <linearGradient id="linear-gradient-40" x1="586.9" y1="-3.28" x2="586.9" y2="24.23" xlink:href="#linear-gradient"/>
    <linearGradient id="linear-gradient-41" x1="601.81" y1="-3.28" x2="601.81" y2="24.23" xlink:href="#linear-gradient"/>
    <linearGradient id="linear-gradient-42" x1="616.72" y1="-3.28" x2="616.72" y2="24.23" xlink:href="#linear-gradient"/>
    <linearGradient id="linear-gradient-43" x1="631.64" y1="-3.28" x2="631.64" y2="24.23" xlink:href="#linear-gradient"/>
    <linearGradient id="linear-gradient-44" x1="646.55" y1="-3.28" x2="646.55" y2="24.23" xlink:href="#linear-gradient"/>
    <linearGradient id="linear-gradient-45" x1="661.46" y1="-3.28" x2="661.46" y2="24.23" xlink:href="#linear-gradient"/>
    <linearGradient id="linear-gradient-46" x1="676.28" y1="-3.28" x2="676.28" y2="24.23" xlink:href="#linear-gradient"/>
    <linearGradient id="linear-gradient-47" x1="691.2" y1="-3.28" x2="691.2" y2="24.23" xlink:href="#linear-gradient"/>
    <linearGradient id="linear-gradient-48" x1="706.11" y1="-3.28" x2="706.11" y2="24.23" xlink:href="#linear-gradient"/>
    <linearGradient id="linear-gradient-49" x1="721.02" y1="-3.28" x2="721.02" y2="24.23" xlink:href="#linear-gradient"/>
    <linearGradient id="linear-gradient-50" x1="735.94" y1="-3.28" x2="735.94" y2="24.23" xlink:href="#linear-gradient"/>
    <linearGradient id="linear-gradient-51" x1="750.85" y1="-3.28" x2="750.85" y2="24.23" xlink:href="#linear-gradient"/>
    <linearGradient id="linear-gradient-52" x1="765.77" y1="-3.28" x2="765.77" y2="24.23" xlink:href="#linear-gradient"/>
    <linearGradient id="linear-gradient-53" x1="780.68" y1="-3.28" x2="780.68" y2="24.23" xlink:href="#linear-gradient"/>
    <linearGradient id="linear-gradient-54" x1="795.59" y1="-3.28" x2="795.59" y2="24.23" xlink:href="#linear-gradient"/>
  </defs>
  <polygon class="cls-51" points="7.41 22.29 0 22.29 3.93 0 11.34 0 7.41 22.29"/>
  <polygon class="cls-7" points="22.33 22.29 14.91 22.29 18.84 0 26.26 0 22.33 22.29"/>
  <polygon class="cls-24" points="37.24 22.29 29.83 22.29 33.76 0 41.17 0 37.24 22.29"/>
  <polygon class="cls-19" points="52.15 22.29 44.74 22.29 48.67 0 56.08 0 52.15 22.29"/>
  <polygon class="cls-26" points="67.07 22.29 59.65 22.29 63.58 0 71 0 67.07 22.29"/>
  <polygon class="cls-43" points="81.98 22.29 74.57 22.29 78.5 0 85.91 0 81.98 22.29"/>
  <polygon class="cls-39" points="96.89 22.29 89.48 22.29 93.41 0 100.82 0 96.89 22.29"/>
  <polygon class="cls-33" points="111.81 22.29 104.4 22.29 108.33 0 115.74 0 111.81 22.29"/>
  <polygon class="cls-40" points="126.72 22.29 119.31 22.29 123.24 0 130.65 0 126.72 22.29"/>
  <polygon class="cls-10" points="141.54 22.29 134.13 22.29 138.06 0 145.47 0 141.54 22.29"/>
  <polygon class="cls-41" points="156.45 22.29 149.04 22.29 152.97 0 160.38 0 156.45 22.29"/>
  <polygon class="cls-11" points="171.37 22.29 163.96 22.29 167.89 0 175.3 0 171.37 22.29"/>
  <polygon class="cls-2" points="186.28 22.29 178.87 22.29 182.8 0 190.21 0 186.28 22.29"/>
  <polygon class="cls-34" points="201.2 22.29 193.78 22.29 197.71 0 205.12 0 201.2 22.29"/>
  <polygon class="cls-1" points="216.11 22.29 208.7 22.29 212.63 0 220.04 0 216.11 22.29"/>
  <polygon class="cls-50" points="231.02 22.29 223.61 22.29 227.54 0 234.95 0 231.02 22.29"/>
  <polygon class="cls-37" points="245.94 22.29 238.52 22.29 242.45 0 249.87 0 245.94 22.29"/>
  <polygon class="cls-54" points="260.85 22.29 253.44 22.29 257.37 0 264.78 0 260.85 22.29"/>
  <polygon class="cls-42" points="275.64 22.29 268.23 22.29 272.16 0 279.57 0 275.64 22.29"/>
  <polygon class="cls-36" points="290.55 22.29 283.14 22.29 287.07 0 294.48 0 290.55 22.29"/>
  <polygon class="cls-45" points="305.46 22.29 298.05 22.29 301.98 0 309.39 0 305.46 22.29"/>
  <polygon class="cls-28" points="320.38 22.29 312.97 22.29 316.9 0 324.31 0 320.38 22.29"/>
  <polygon class="cls-52" points="335.29 22.29 327.88 22.29 331.81 0 339.22 0 335.29 22.29"/>
  <polygon class="cls-29" points="350.21 22.29 342.79 22.29 346.72 0 354.14 0 350.21 22.29"/>
  <polygon class="cls-9" points="365.12 22.29 357.71 22.29 361.64 0 369.05 0 365.12 22.29"/>
  <polygon class="cls-18" points="380.03 22.29 372.62 22.29 376.55 0 383.96 0 380.03 22.29"/>
  <polygon class="cls-13" points="394.95 22.29 387.53 22.29 391.46 0 398.88 0 394.95 22.29"/>
  <polygon class="cls-3" points="409.77 22.29 402.35 22.29 406.28 0 413.7 0 409.77 22.29"/>
  <polygon class="cls-35" points="424.68 22.29 417.27 22.29 421.2 0 428.61 0 424.68 22.29"/>
  <polygon class="cls-21" points="439.59 22.29 432.18 22.29 436.11 0 443.52 0 439.59 22.29"/>
  <polygon class="cls-53" points="454.51 22.29 447.1 22.29 451.03 0 458.44 0 454.51 22.29"/>
  <polygon class="cls-48" points="469.42 22.29 462.01 22.29 465.94 0 473.35 0 469.42 22.29"/>
  <polygon class="cls-31" points="484.33 22.29 476.92 22.29 480.85 0 488.26 0 484.33 22.29"/>
  <polygon class="cls-25" points="499.25 22.29 491.84 22.29 495.77 0 503.18 0 499.25 22.29"/>
  <polygon class="cls-20" points="514.16 22.29 506.75 22.29 510.68 0 518.09 0 514.16 22.29"/>
  <polygon class="cls-44" points="529.08 22.29 521.66 22.29 525.59 0 533.01 0 529.08 22.29"/>
  <polygon class="cls-14" points="543.9 22.29 536.48 22.29 540.41 0 547.83 0 543.9 22.29"/>
  <polygon class="cls-27" points="558.81 22.29 551.4 22.29 555.33 0 562.74 0 558.81 22.29"/>
  <polygon class="cls-15" points="573.72 22.29 566.31 22.29 570.24 0 577.65 0 573.72 22.29"/>
  <polygon class="cls-12" points="588.64 22.29 581.22 22.29 585.15 0 592.57 0 588.64 22.29"/>
  <polygon class="cls-49" points="603.55 22.29 596.14 22.29 600.07 0 607.48 0 603.55 22.29"/>
  <polygon class="cls-5" points="618.46 22.29 611.05 22.29 614.98 0 622.39 0 618.46 22.29"/>
  <polygon class="cls-8" points="633.38 22.29 625.97 22.29 629.9 0 637.31 0 633.38 22.29"/>
  <polygon class="cls-22" points="648.29 22.29 640.88 22.29 644.81 0 652.22 0 648.29 22.29"/>
  <polygon class="cls-46" points="663.2 22.29 655.79 22.29 659.72 0 667.13 0 663.2 22.29"/>
  <polygon class="cls-6" points="678.02 22.29 670.61 22.29 674.54 0 681.95 0 678.02 22.29"/>
  <polygon class="cls-17" points="692.94 22.29 685.53 22.29 689.46 0 696.87 0 692.94 22.29"/>
  <polygon class="cls-47" points="707.85 22.29 700.44 22.29 704.37 0 711.78 0 707.85 22.29"/>
  <polygon class="cls-23" points="722.77 22.29 715.35 22.29 719.28 0 726.7 0 722.77 22.29"/>
  <polygon class="cls-38" points="737.68 22.29 730.27 22.29 734.2 0 741.61 0 737.68 22.29"/>
  <polygon class="cls-32" points="752.59 22.29 745.18 22.29 749.11 0 756.52 0 752.59 22.29"/>
  <polygon class="cls-16" points="767.51 22.29 760.09 22.29 764.02 0 771.44 0 767.51 22.29"/>
  <polygon class="cls-4" points="782.42 22.29 775.01 22.29 778.94 0 786.35 0 782.42 22.29"/>
  <polygon class="cls-30" points="797.33 22.29 789.92 22.29 793.85 0 801.26 0 797.33 22.29"/>
</svg>