<svg width="155" height="22" viewBox="0 0 155 22" fill="none" xmlns="http://www.w3.org/2000/svg">
<g clip-path="url(#clip0_18_39)">
<path fill-rule="evenodd" clip-rule="evenodd" d="M55.7634 8.99194H62.6354V18.9364H67.2168V22H55.7705V8.99194H55.7634ZM88.5846 22H95.4566V14.3516H99.272V11.2879H90.1164C89.3576 11.2879 88.5917 12.0485 88.5917 12.8162V22H88.5846ZM116.3 11.2879H104.251C98.6551 11.2879 98.6692 22 104.251 22H117.583V18.9364H106.896V17.4081H116.293C119.044 17.4081 119.002 11.2879 116.293 11.2879H116.3ZM106.903 14.3444H112.243V15.8727H106.903V14.3444ZM70.7911 22H82.8402C88.4357 22 88.4286 11.2879 82.8402 11.2879H69.5075V14.3516H80.1949V15.8798H70.7982C68.0465 15.8798 68.0891 22 70.7982 22H70.7911ZM80.1878 18.9364H74.8405V17.4081H80.1878V18.9364ZM54.2387 11.2879H40.7286C35.3672 11.2879 35.3743 22 40.7286 22H54.2387V18.9364H45.4589C42.9271 18.9364 42.9271 14.3444 45.4589 14.3444H54.2387V11.2879ZM29.793 8.99905H29.8001L35.1544 8.99194V22H28.2824V15.8798L21.4175 22H14.6234V15.8798L7.75142 22H0L16.1482 8.99194H21.4175V15.8727L29.793 8.99905ZM131.32 11.2879H133.703C135.958 11.2879 137.348 12.7238 137.426 14.2023V22H131.32V16.6546C131.32 15.0553 129.795 14.3444 126.739 14.3444V21.9929H119.867V11.2808H131.313L131.32 11.2879Z" fill="black"/>
<path fill-rule="evenodd" clip-rule="evenodd" d="M124.845 8.10337C149.894 -5.72926 169.255 -1.03782 141.128 16.0148C147.312 5.65103 139.455 4.62744 124.845 8.10337Z" fill="#CC2A2D"/>
</g>
<defs>
<clipPath id="clip0_18_39">
<rect width="155" height="22" fill="white"/>
</clipPath>
</defs>
</svg>
