<?xml version="1.0" encoding="UTF-8"?>
<svg id="Layer_1" data-name="Layer 1" xmlns="http://www.w3.org/2000/svg" xmlns:xlink="http://www.w3.org/1999/xlink" viewBox="0 0 268.99 127.95">
  <defs>
    <style>
      .cls-1 {
        fill: url(#linear-gradient-2);
      }

      .cls-2 {
        fill: #fff;
      }

      .cls-3 {
        fill: url(#linear-gradient);
      }
    </style>
    <linearGradient id="linear-gradient" x1="121.48" y1="45.73" x2="219.11" y2="143.36" gradientUnits="userSpaceOnUse">
      <stop offset="0" stop-color="#00dbb8"/>
      <stop offset="1" stop-color="#00b8dc"/>
    </linearGradient>
    <linearGradient id="linear-gradient-2" x1="205.96" y1="47.71" x2="205.96" y2="58.66" gradientTransform="translate(9.7 -28.89) rotate(8.22)" xlink:href="#linear-gradient"/>
  </defs>
  <g>
    <path class="cls-3" d="M262.8,73.72c-2.1-5.08-5.07-9.8-8.81-13.94-.98-1.09-2.36-1.76-3.83-1.81-10.62-.37-20.78-3.46-29.61-8.76-9.43-5.65-17.34-13.83-22.71-23.88-4.79-8.99-14.15-14.6-24.34-14.6h-70.34c-10.09,0-19.98-2.85-28.52-8.23.74,1.69,2.26,4.85,5.06,8.23,1.76,2.13,4.03,4.35,6.93,6.33,7.43,5.09,14.79,5.78,17.81,5.9,0,0-8.52,1.22-18.17,3.21-4.73.98-9.73,2.14-14.13,3.44-16.59,4.87-22,8.8-32.67,9.75-8.57.76-21.05-.35-36.97-9.56,17.07,13.84,36.51,27.9,58.28,33.07,6.2,1.47,12.66,2.11,19,1.22,12.67-1.78,21.73-11.23,32.46-17.22,5.85-3.26,12.36-5.67,19.06-5.61,6.7.06,13.59,2.9,17.42,8.39,10.69,15.34-5.64,32.05-20.86,33.38-10.45.91-18.9-3.55-28.77-5.54-8.91-1.8-18.78-.75-27.77-.07-7.56.57-29.01,3.44-32.19,4.43,12.77,1.99,25.57,5.82,37.68,10.24,23.16,8.47,40.78,28.32,65.64,32.44,16.39,2.72,32.83-1.17,48.81-4.55,16.28-3.44,32.11-5.29,48.76-4.55,9.62.42,18.59-2.14,22.38-12.01l4.08-5.13c0-6.42-1.28-18.76-3.69-24.58Z"/>
    <path d="M154.05,127.95c-3.99,0-7.99-.28-12.01-.95-14.85-2.46-27.22-10.36-39.19-17.99-8.54-5.45-17.36-11.08-26.91-14.57-13.85-5.06-26.02-8.38-37.2-10.12-1.15-.18-2.02-1.13-2.11-2.29s.64-2.23,1.75-2.57c3.58-1.11,25.6-4,32.74-4.54l2.63-.21c8.57-.68,17.43-1.38,25.82.32,3.33.67,6.49,1.61,9.54,2.52,6.14,1.83,11.94,3.55,18.51,2.98,8.42-.73,17.03-6.6,20.47-13.95,1.72-3.67,2.86-9.34-1.44-15.51-3.11-4.46-9.01-7.26-15.4-7.32-.08,0-.15,0-.23,0-5.38,0-11.29,1.78-17.59,5.29-3.25,1.81-6.44,4.02-9.52,6.16-7.13,4.94-14.51,10.05-23.81,11.35-6.1.86-12.8.44-19.92-1.26C37.96,60.02,18.57,46.05.93,31.74c-1.01-.82-1.22-2.28-.48-3.36.74-1.07,2.18-1.4,3.31-.75,12.31,7.12,24.26,10.23,35.5,9.23,6.15-.55,10.55-2.17,16.65-4.42,3.98-1.47,8.94-3.3,15.54-5.24,3.91-1.16,8.73-2.33,14.33-3.49,1.99-.41,3.94-.79,5.78-1.13-2.07-.88-4.2-2.01-6.32-3.47-2.78-1.9-5.28-4.19-7.44-6.8-2.2-2.65-4.02-5.62-5.42-8.82-.44-1.01-.17-2.18.66-2.9.83-.72,2.03-.81,2.96-.22,8.15,5.13,17.55,7.85,27.19,7.85h70.34c11.14,0,21.31,6.1,26.55,15.92,5.07,9.48,12.6,17.41,21.79,22.91,8.58,5.15,18.4,8.06,28.41,8.41,2.11.07,4.15,1.03,5.6,2.63,3.92,4.33,7.04,9.27,9.27,14.66,2.53,6.11,3.88,18.76,3.88,25.53,0,.56-.19,1.11-.54,1.56l-3.85,4.84c-3.76,9.34-12.07,13.79-24.68,13.24-15.17-.67-30.47.76-48.14,4.5l-2.8.6c-11.41,2.43-23.1,4.92-34.93,4.92ZM52.93,82.09c7.7,1.89,15.89,4.42,24.73,7.65,10.06,3.68,19.12,9.46,27.88,15.05,12.07,7.7,23.48,14.98,37.32,17.28,14.97,2.48,30.27-.78,45.07-3.93l2.81-.6c18.1-3.83,33.79-5.29,49.39-4.6,10.55.47,17.07-2.94,19.94-10.41.09-.24.22-.46.38-.66l3.53-4.44c-.11-6.39-1.34-17.56-3.49-22.76-2.01-4.86-4.83-9.31-8.36-13.22-.54-.6-1.3-.96-2.06-.99-10.85-.38-21.51-3.53-30.81-9.12-9.96-5.97-18.13-14.56-23.63-24.85-4.36-8.19-12.85-13.28-22.13-13.28h-70.34c-7.53,0-14.93-1.51-21.79-4.41.08.11.17.21.26.31,1.86,2.25,4.02,4.23,6.41,5.86,6.16,4.22,12.37,5.3,16.5,5.47,1.29.05,2.33,1.08,2.4,2.37.07,1.29-.86,2.42-2.14,2.6-.08.01-8.56,1.23-18.02,3.18-5.46,1.13-10.14,2.27-13.93,3.39-6.44,1.89-11.1,3.61-15.22,5.13-6.46,2.38-11.13,4.11-17.94,4.71-6.49.57-13.15-.08-19.95-1.95,12.85,9.18,26.62,16.98,41.61,20.54,6.51,1.55,12.59,1.94,18.07,1.17,8.13-1.14,14.7-5.7,21.66-10.51,3.18-2.2,6.47-4.48,9.93-6.41,7.15-3.99,13.97-5.98,20.3-5.92,7.98.08,15.43,3.7,19.45,9.46,4.42,6.34,5.08,13.62,1.87,20.49-4.14,8.86-14.48,15.93-24.56,16.81-7.52.65-14.05-1.29-20.37-3.17-2.95-.88-6-1.78-9.11-2.41-7.71-1.56-16.21-.89-24.44-.24l-2.65.21c-4.11.31-11.78,1.24-18.58,2.18Z"/>
  </g>
  <path d="M264.28,100.8c-.44,0-.88-.12-1.28-.36-12.6-7.57-27.96-5.03-42.81-2.58-2.01.33-4,.66-5.97.96-8.63,1.32-17.56-.87-24.49-6-.4-.3-.62-.47-.62-.47-1.08-.86-1.25-2.44-.39-3.51.86-1.08,2.43-1.25,3.51-.39.02.01.18.14.47.36,5.87,4.35,13.43,6.2,20.76,5.08,1.95-.3,3.92-.62,5.91-.95,15.01-2.48,32.02-5.29,46.2,3.23,1.18.71,1.57,2.25.86,3.43-.47.78-1.3,1.21-2.15,1.21Z"/>
  <path d="M252.31,76.77c-1.21,0-2.27-.88-2.47-2.11-.42-2.62-1.56-4.93-2.2-5.4-.12.06-.36.22-.72.61-.94,1.01-2.52,1.06-3.53.12-1.01-.94-1.06-2.52-.12-3.53,2.27-2.43,4.39-2.44,5.76-2.02,4.34,1.33,5.62,8.61,5.76,9.44.22,1.36-.71,2.65-2.08,2.86-.13.02-.27.03-.4.03Z"/>
  <g>
    <path class="cls-2" d="M226.17,55.12s.63,6.63-16.18,7.99c-8.61-1.41-22.51-4.26-30.69-33.86,6.72,4.48,21.34,11.18,21.34,11.18l8.77,2.92c4.82,5.99,12.97,9.93,16.77,11.77Z"/>
    <path d="M209.1,65.63c-.53,0-1.06-.02-1.59-.05-20.05-1.31-30.28-26.98-31.87-38.48-.15-1.09.43-2.15,1.43-2.61,1-.46,2.18-.22,2.91.6,9.87,11.03,21.7,13.43,29.89,13.51,1.38.01,2.49,1.14,2.48,2.52-.01,1.37-1.13,2.48-2.5,2.48h-.02c-7.49-.07-17.7-1.87-27.23-9.24,3.61,10.67,11.84,25.37,25.23,26.24,3.87.25,8.01-.66,12.33-2.72,1.25-.59,2.74-.06,3.33,1.18.59,1.25.06,2.74-1.18,3.33-4.53,2.15-8.97,3.24-13.22,3.24Z"/>
    <g>
      <ellipse class="cls-1" cx="205.96" cy="53.06" rx="4.99" ry="9.85" transform="translate(-5.47 29.98) rotate(-8.22)"/>
      <path d="M206.98,65.34c-2.03,0-3.98-1.2-5.56-3.44-1.42-2.02-2.44-4.78-2.87-7.76-1.01-6.97,1.42-12.68,5.65-13.29,4.22-.62,8.17,4.18,9.18,11.15.43,2.99.23,5.92-.56,8.26-.98,2.91-2.79,4.7-5.09,5.03-.25.04-.5.05-.75.05ZM204.95,45.78s-.02,0-.04,0c-.61.09-2.09,2.94-1.41,7.63.32,2.19,1.05,4.23,2.01,5.61.74,1.06,1.35,1.33,1.5,1.31.14-.02.65-.46,1.07-1.68.54-1.59.66-3.76.35-5.95-.67-4.61-2.82-6.92-3.48-6.92Z"/>
    </g>
  </g>
  <path d="M137.22,61.05c0-5.51-7.03-9.22-11.5-5.3-1.05.92-1.74,2.14-2.65,3.17s-2.1,2.02-3.36,2.7c-.66.35-1.36.63-2.08.81s-1.48.15-2.21.23c2.2.97,4.11,2.39,6.15,3.65,2.36,1.46,5.15,1.9,7.91,1.81,3.39-.12,6.75-2.05,7.56-5.52.12-.53.18-1.05.18-1.55Z"/>
  <path d="M40.95,20.48c-1.68-.75-3.8-.69-5.52-.26-2.17.54-4.57,1.78-5.91,3.6-.22.29-.66.79-.63,1.18,2.12-.25,4.45.07,6.41.93.8.35,1.55.79,2.34,1.15s1.66.61,2.52.55c1.28-.09,2.48-.92,3.01-2.09s.36-2.62-.42-3.64c-.49-.64-1.11-1.1-1.82-1.41Z"/>
  <path d="M13.04,90.83c1.27-2.79,3.98-5.05,6.6-6.41,3.3-1.71,7.68-2.82,11.35-2.02.6.13,1.7.27,2.09.78-2.93,2.03-5.48,5-6.98,8.23-.61,1.31-1.06,2.7-1.66,4.02-.61,1.32-1.4,2.59-2.55,3.47-1.7,1.3-4.12,1.58-6.07.71s-3.35-2.88-3.5-5.01c-.09-1.33.18-2.59.71-3.77Z"/>
</svg>